<?xml version="1.0" encoding="UTF-8"?>
<svg id="Layer_2" data-name="Layer 2" xmlns="http://www.w3.org/2000/svg" viewBox="0 0 80.74 80.67">
  <defs>
    <style>
      .cls-1 {
        fill: #f3ffff;
      }

      .cls-1, .cls-2, .cls-3 {
        stroke-width: 0px;
      }

      .cls-2 {
        fill: #00c9c3;
      }

      .cls-3 {
        fill: #fff;
      }
    </style>
  </defs>
  <g id="Layer_1-2" data-name="Layer 1">
    <g>
      <path class="cls-1" d="M39.93,0C17.75.15-.08,18.22,0,40.41c.08,22.47,18.08,40.4,40.44,40.26,22.67-.12,40.47-18.13,40.3-40.77C80.57,17.59,62.4-.17,39.93,0ZM67.85,62.86c-.78,1.44-2.05,2.56-3.49,3.29-4.74,2.41-9.51,4.77-14.33,6.99-3.47,1.59-6.88,1.36-10.33-.47-3.66-1.94-7.51-3.13-11.8-1.83-2.22.68-4.39.11-6.39-1.16-2.18-1.41-4.48-2.65-6.6-4.13-1.93-1.34-3.6-2.95-3.84-5.59-.08-1.08-.44-2.22-.97-3.17-8.03-14.58-2.13-27.41,5.48-39.66,3.98-6.4,17.11-11.89,25.12-11.89,17.74.03,34.09,13.31,36.67,29.82.64,4.12.53,8.29-1.22,12.06-2.5,5.38-5.45,10.55-8.29,15.76Z"/>
      <path class="cls-2" d="M28.39,68.89c-.51,1.01-1.57,1.03-2.23.97-3.49-.47-6.06-2.07-8.44-4.05-.29-.25-1.08-.21-.57-.9.28-.37.58-.64,1.18-.26,2.81,1.71,5.64,3.37,9.18,2.95.5-.06,1.23.6.89,1.29Z"/>
      <path class="cls-2" d="M35.71,25.69c-.29.92-.8,1.57-1.86,1.44-1.01-.12-1.59-.78-1.47-1.77.12-.96.78-1.59,1.8-1.44.92.15,1.55.73,1.53,1.77Z"/>
      <path class="cls-1" d="M23.37,40c-1.59,0-3.59-2.27-3.59-8.26s2.08-8.07,3.58-8.07,3.62,2.05,5.84,5.37h.19l-.49-5.42c-2.09-.46-4.15-.75-5.7-.75-4.88,0-8.82,2.93-8.82,9.18,0,6.57,4.35,8.75,8.68,8.75,1.71,0,4.23-.33,5.82-.72l.47-5.56h-.18c-2.2,3.45-4.31,5.49-5.81,5.49Z"/>
      <path class="cls-1" d="M36.47,28.88c-3.9,0-6.67,2.08-6.67,6.25s2.77,6.02,6.45,6.02c3.91,0,6.64-2.08,6.64-6.22s-2.77-6.04-6.42-6.04ZM36.96,40.45c-1.94,0-2.56-6.07-2.56-8.07s.65-2.81,1.34-2.81c1.94,0,2.54,6.07,2.54,8.05s-.6,2.83-1.32,2.83Z"/>
      <path class="cls-1" d="M28.06,53.61c-1.26,2.66-3.12,4.55-5.14,4.55h-.51c-1.18,0-2.05-.43-2.05-1.18v-6.77l1.3-.03c1.52-.03,2.76.97,3.48,2.27h.12v-5.16h-.12c-.75,1.22-2,2.08-3.48,2.08h-1.3v-6.83h1.29c2.58,0,4.51,1.86,5.43,4.67h.17l-.44-5.49h-13.09v.17c1.43.75,1.64,1,1.64,2.8v11.31c0,1.83-.21,2.08-1.64,2.8v.19h13.96l.58-5.39h-.19Z"/>
      <path class="cls-1" d="M39.64,53.93c-.79,1.39-1.89,2.13-3.35,2.13-2.44,0-3.7-2.01-3.7-4.96,0-2.29.75-3.72,1.82-3.72s1.86,1.47,2.08,3.99l.17.07,2.73-2.08c-.89-1.5-2.41-2.69-4.88-2.69-3.09,0-6.02,1.89-6.02,6.11s2.88,6.17,5.92,6.17c3.19,0,4.91-2.2,5.46-4.94l-.22-.1Z"/>
      <path class="cls-1" d="M46.72,46.68c-3.88,0-6.67,2.08-6.67,6.27s2.79,6.02,6.46,6.02c3.91,0,6.64-2.08,6.64-6.24s-2.79-6.04-6.43-6.04ZM47.2,58.25c-1.93,0-2.56-6.06-2.56-8.07s.65-2.8,1.36-2.8c1.93,0,2.54,6.06,2.54,8.04s-.61,2.83-1.33,2.83Z"/>
      <path class="cls-1" d="M53.82,21.6c-2.41,0-3.63,1.9-3.63,5.71v1.05h-3.62c-.55-2.08-.85-3.67-.85-4.69,0-.94.24-1.46.79-1.46.75,0,1.62,1.07,2.34,2.65l.15.04,1.94-2.51c-1.22-.42-2.69-.8-3.8-.8-2.41,0-3.63,1.9-3.63,5.71v1.05h-1.82l-.4,1.5h2.22v7.53c0,1.94-.29,2.2-1.64,2.76v.19h5.03s.04-.08.07-.11c.12-.19.21-.4.28-.62-.55-.39-.69-.93-.69-2.22v-7.53h3.62v7.53c0,.96-.1,1.5-.36,1.89-.04.36-.11.72-.22,1.07h5.55v-.19c-1.57-.55-1.93-.82-1.93-2.76v-7.53h1.46v-1.5h-1.46c-.54-2.08-.85-3.67-.85-4.69,0-.94.25-1.46.8-1.46.73,0,1.61,1.07,2.33,2.65l.15.04,1.95-2.51c-1.23-.42-2.7-.8-3.8-.8Z"/>
      <path class="cls-1" d="M68.04,58.82v.19h-4.82c-.49-.86-.91-1.75-1.23-2.63-.55-1.59-.93-3.26-1.05-4.81-.06-.8-.64-1.47-1.47-1.47-.76,0-1.54.67-1.48,1.47.21,2.59.85,5.12,1.93,7.44h-7.21v-.19c1.01-.64,1.25-.94,1.25-2.74v-4.99c0-2.07-.15-2.47-1.25-3.4v-.18c1.93-.1,3.88-.44,5.89-1.01v2.55c1.04-1.57,2.66-2.51,4.39-2.51,2.29,0,3.78,1.66,3.78,4.26v5.28c0,1.8.25,2.11,1.28,2.74Z"/>
      <path class="cls-2" d="M66.71,28.91v7.78c0,1.18-.47,2.23-1.25,3.01-.1.1-.21.19-.32.29-.73.6-1.66.96-2.69.96h-.76c-2.34,0-4.26-1.91-4.26-4.26v-7.78c0-2.34,1.91-4.26,4.26-4.26h.76c2.34,0,4.26,1.91,4.26,4.26Z"/>
      <g>
        <path class="cls-3" d="M63.13,28.55c-.72.44-.65,1.51-.67,1.94-.01.3-.17.46-.26.53v.1s-.1.06-.11-.08c.01-.01,0-.01,0-.01-.32-.36-.25-.73-.25-.75.01-.03.08-.89.06-1.26-.03-.37-.6-.75-.72-.82-.11-.08-1.01-.47-1.21-.58-.25.6.06,1.41.24,1.75.19.35.54.53.82.71.28.18.76.71.97,1.04.17.3.22.14.42-.14.83-1,1.48-1.05,1.72-1.03.22.03.75-.5.78-.6.06-.26.51-.72.49-.82-.44-.22-1.55-.42-2.26.03ZM61.47,30.14s-.18-.04-.25-.1c.04.03.22.06.22.06-.08-.15-.17-.3-.26-.47-.11.04-.36-.08-.46-.19.15.11.43.14.43.14-.12-.21-.25-.44-.39-.65,0,0-.17-.03-.31-.07.14.01.28.01.28.01-.14-.25-.28-.47-.37-.64.1.14.21.29.33.47,0,0,.06-.17.06-.24.04.1-.01.29-.01.29.1.14.19.29.29.46,0,0,.24-.33.29-.53-.01.18-.11.42-.25.6.11.19.22.37.33.57.15-.18.28-.61.31-.71,0,.24-.21.69-.26.79.11.22.22.44.28.64-.06-.08-.14-.24-.25-.43ZM64.82,28.99c-.1-.03-.28-.07-.39-.01-.14.07-.44.28-.5.35.07,0,.19.14.37.21-.1,0-.25-.04-.46-.14-.08.06-.28.15-.39.26.08,0,.46.07.62.08-.04.03-.54.07-.72-.01-.08.04-.4.29-.8.91.08-.15.4-.75.73-.94.03-.11-.1-.68.08-.97-.06.15-.12.43-.01.86.06-.03.33-.25.46-.29.03-.11-.03-.4.12-.55-.03.08-.1.24-.06.51.1-.08.25-.21.25-.21,0,0-.04-.26.15-.39-.08.12-.11.26-.07.32.12-.04.5-.29.69-.29-.08.06-.31.14-.39.22.04.01.21.01.29.08Z"/>
        <path class="cls-3" d="M63.83,30.96c-.93.42-1.07,1.68-1.16,2.19-.08.4-.36.55-.47.61-.01,0-.03.01-.03.01.01.1.03.17.04.19.04-.03.1-.07.17-.14.03-.04.08-.08.12-.14,1.19-1.05,1.98-1,2.26-.93.26.07,1-.49,1.04-.58.12-.32.76-.76.76-.9-.5-.33-1.79-.72-2.73-.32ZM65.81,31.79s-.32-.17-.5-.11c-.18.07-.55.25-.67.35.1,0,.26.29.58.33-.07,0-.29-.01-.71-.28-.1.06-.36.12-.51.25.07,0,.54.15.73.19-.06.03-.65-.01-.86-.12-.11.04-.54.28-1.12.93.11-.15.61-.79,1.04-.98.07-.14.01-.93.36-1.21-.08.14-.32.44-.25,1.1.07-.03.46-.24.61-.28.06-.14.04-.53.31-.67-.03.06-.21.21-.22.62.14-.08.35-.19.35-.19,0,0,0-.32.25-.43-.11.14-.18.29-.14.36.15-.03.67-.26.89-.24-.12.06-.39.11-.51.19.07.03.32.07.37.18Z"/>
        <path class="cls-3" d="M62.13,33.99s0,0,0,0c0,0,.02-.01.03-.01-.01,0-.02,0-.03,0Z"/>
        <polygon class="cls-3" points="62.12 34.01 62.13 34 62.12 34 62.12 34.01"/>
        <polygon class="cls-3" points="62.13 34.01 62.13 34 62.13 34 62.13 34.01"/>
        <path class="cls-3" d="M62.11,33.99s.01,0,.02.01c0,0,0,0,0,0,0,0-.01,0-.02,0Z"/>
        <path class="cls-3" d="M62.07,33.77s-.08-.04-.12-.08c-.43-.26-.49-.65-.49-.68,0-.04-.25-1.04-.43-1.44-.18-.42-.97-.58-1.14-.61-.15-.03-1.32-.1-1.58-.12-.06.78.61,1.57.96,1.87.35.31.8.35,1.19.44.28.06.75.28,1.12.49.14.08.26.18.36.25.07.06.1.07.14.1,0-.03,0-.1-.01-.21ZM60.98,33.05s-.18.03-.28-.01c.1,0,.24-.04.24-.04-.15-.12-.32-.26-.49-.4-.12.1-.55.06-.67-.06.21.12.62.01.62.01-.24-.19-.47-.39-.69-.58,0,0-.19.04-.37.07.15-.04.32-.11.32-.11-.28-.24-.54-.46-.73-.6.17.1.39.25.62.43,0,0,0-.25-.04-.32.1.08.11.36.11.36.17.12.33.25.5.39,0,0,.11-.4.11-.65v-.07c.06.22.06.51-.03.78.19.17.4.33.58.5.11-.31.07-.94.07-.94.1.24.03.89.01,1.03.25.22.46.44.61.65,0,0-.19-.18-.5-.43Z"/>
        <path class="cls-3" d="M61.5,30.78c-.11,0-.19.09-.19.2s.09.2.19.2.19-.09.19-.2-.09-.2-.19-.2Z"/>
        <path class="cls-3" d="M61.84,31.11c-.11,0-.2.07-.2.16s.09.16.2.16.2-.07.2-.16-.09-.16-.2-.16Z"/>
        <path class="cls-3" d="M62.66,31.31c.11,0,.2-.09.2-.2s-.09-.2-.2-.2-.2.09-.2.2.09.2.2.2Z"/>
        <path class="cls-3" d="M62.4,32.15c.11,0,.2-.09.2-.2s-.09-.2-.2-.2-.2.09-.2.2.09.2.2.2Z"/>
        <path class="cls-3" d="M61.93,31.5c-.11,0-.2.09-.2.2s.09.2.2.2.2-.09.2-.2-.09-.2-.2-.2Z"/>
        <path class="cls-3" d="M61.5,31.72c.11,0,.2-.09.2-.2s-.09-.2-.2-.2-.2.09-.2.2.09.2.2.2Z"/>
        <path class="cls-3" d="M62.3,31.31c-.11,0-.2.09-.2.2s.09.2.2.2.2-.09.2-.2-.09-.2-.2-.2Z"/>
        <circle class="cls-3" cx="62.72" cy="31.58" r=".2"/>
        <path class="cls-3" d="M61.62,32.24c.11,0,.2-.09.2-.2s-.09-.2-.2-.2-.2.09-.2.2.09.2.2.2Z"/>
        <path class="cls-3" d="M62.01,32.4c.11,0,.2-.09.2-.2s-.09-.2-.2-.2-.2.09-.2.2.09.2.2.2Z"/>
        <path class="cls-3" d="M62.08,33.99s.01,0,.02,0c0,0-.02-.01-.02-.02,0,0,0,.01,0,.01Z"/>
        <path class="cls-3" d="M62.13,33.98c.01-.07.02-.15.03-.21,0,0,0,0,0,0-.05-.4-.08-1.22-.06-1.29-.05.04-.14,0-.14,0,0,.12.07.91.1,1.29,0,0,0,0,.01,0,0,.05.03.13.05.2Z"/>
        <path class="cls-3" d="M62.21,33.98s0-.01,0-.02c-.01,0-.03.02-.04.02.02,0,.04,0,.05,0Z"/>
        <path class="cls-3" d="M62.13,33.99s0,0,0-.01c0,0,0,0,0,.01,0,0,0,0,0,0Z"/>
        <path class="cls-3" d="M62.21,31.02c-.1-3.38.83-3.71,1.04-3.87-1.3.37-1.15,3.73-1.14,3.87.01.02.02.03.04.05,0,0,.03-.02.07-.05Z"/>
      </g>
      <path class="cls-3" d="M65.46,39.69c-.1.1-.21.19-.32.29.04-1.23-.17-2.5-.68-3.62-.39-.86-.98-1.65-1.83-2.09-.93-.5-2.25-.53-2.81.5-.1.17-.36.01-.26-.15.42-.75,1.22-1.05,2.02-.98.12.01.24.03.36.06.04.01.08.01.12.03.01,0,.03.01.04.01s.04.01.06.01.01.01.03.01c.06.01.12.04.18.07.86.32,1.54.98,2.02,1.75.75,1.22,1.08,2.66,1.07,4.12Z"/>
    </g>
  </g>
</svg>