<svg width="16" height="16" viewBox="0 0 16 16" fill="none" xmlns="http://www.w3.org/2000/svg">
<path d="M3.99303 6.30975L4.42832 6.55576L4.42832 6.55576L3.99303 6.30975ZM7.15898 2.13608L7.31649 2.61063L7.3165 2.61062L7.15898 2.13608ZM8.84102 2.13608L8.68349 2.61062L8.6835 2.61063L8.84102 2.13608ZM12.007 6.30975L11.5717 6.55576L11.5717 6.55576L12.007 6.30975ZM13.9621 11.1976L14.4516 11.2994L14.4516 11.2994L13.9621 11.1976ZM13.121 12.6858L13.4595 13.0538L13.4595 13.0538L13.121 12.6858ZM2.87898 12.6858L2.54046 13.0538L2.54048 13.0538L2.87898 12.6858ZM2.03793 11.1976L2.52745 11.0957L2.52745 11.0957L2.03793 11.1976ZM7.64532 10.7C7.64532 10.9761 7.86917 11.2 8.14532 11.2C8.42146 11.2 8.64532 10.9761 8.64532 10.7H7.64532ZM7.54532 7.20001C7.26917 7.20001 7.04532 7.42387 7.04532 7.70001C7.04532 7.97615 7.26917 8.20001 7.54532 8.20001V7.20001ZM7.9952 5.39999C7.71905 5.39999 7.4952 5.62385 7.4952 5.89999C7.4952 6.17614 7.71905 6.39999 7.9952 6.39999V5.39999ZM8.0006 6.39999C8.27674 6.39999 8.5006 6.17614 8.5006 5.89999C8.5006 5.62385 8.27674 5.39999 8.0006 5.39999V6.39999ZM4.42832 6.55576C5.15809 5.26446 5.68625 4.33123 6.15355 3.67595C6.62265 3.01814 6.97436 2.72419 7.31649 2.61063L7.00146 1.66154C6.34995 1.8778 5.84279 2.3894 5.33937 3.09533C4.83416 3.80379 4.27617 4.79248 3.55773 6.06375L4.42832 6.55576ZM7.3165 2.61062C7.76083 2.46313 8.23916 2.46313 8.68349 2.61062L8.99854 1.66155C8.34967 1.44615 7.65032 1.44615 7.00145 1.66155L7.3165 2.61062ZM8.6835 2.61063C9.02564 2.72419 9.37735 3.01814 9.84644 3.67595C10.3137 4.33123 10.8419 5.26446 11.5717 6.55576L12.4423 6.06375C11.7238 4.79248 11.1658 3.80379 10.6606 3.09534C10.1572 2.3894 9.65005 1.8778 8.99853 1.66154L8.6835 2.61063ZM11.5717 6.55576C12.3014 7.84694 12.8285 8.78097 13.1504 9.52229C13.473 10.2651 13.5491 10.728 13.4726 11.0957L14.4516 11.2994C14.5923 10.6232 14.4149 9.92347 14.0677 9.12395C13.7198 8.32299 13.1608 7.3351 12.4423 6.06375L11.5717 6.55576ZM13.4726 11.0957C13.3741 11.569 13.1318 11.9965 12.7825 12.3178L13.4595 13.0538C13.9644 12.5893 14.311 11.975 14.4516 11.2994L13.4726 11.0957ZM12.7825 12.3178C12.514 12.5648 12.0902 12.7279 11.3015 12.8137C10.5138 12.8993 9.46003 12.9 8 12.9V13.9C9.4364 13.9 10.555 13.9007 11.4095 13.8078C12.2631 13.715 12.9516 13.521 13.4595 13.0538L12.7825 12.3178ZM8 12.9C6.53998 12.9 5.48623 12.8993 4.69853 12.8137C3.90975 12.7279 3.48597 12.5648 3.21748 12.3178L2.54048 13.0538C3.04839 13.521 3.73692 13.715 4.59045 13.8078C5.44504 13.9007 6.56361 13.9 8 13.9V12.9ZM3.2175 12.3179C2.86815 11.9965 2.62591 11.569 2.52745 11.0957L1.54842 11.2994C1.68896 11.975 2.03555 12.5893 2.54046 13.0538L3.2175 12.3179ZM2.52745 11.0957C2.45094 10.728 2.52699 10.2651 2.84956 9.52229C3.17151 8.78097 3.69861 7.84694 4.42832 6.55576L3.55773 6.06375C2.83923 7.3351 2.28018 8.32299 1.93233 9.12395C1.5851 9.92347 1.40771 10.6232 1.54842 11.2994L2.52745 11.0957ZM8.64532 10.7V8.30001H7.64532V10.7H8.64532ZM8.64532 8.30001C8.64532 8.17273 8.64638 8.02695 8.62987 7.90418C8.61142 7.767 8.56328 7.5866 8.41097 7.4343L7.70386 8.1414C7.67555 8.11309 7.65662 8.08163 7.64585 8.05546C7.63672 8.03327 7.63685 8.02303 7.63879 8.03747C7.64078 8.05224 7.64291 8.07859 7.6441 8.12564C7.64528 8.17244 7.64532 8.22744 7.64532 8.30001H8.64532ZM8.41097 7.4343C8.25864 7.28197 8.0782 7.23387 7.9411 7.21545C7.81836 7.19895 7.67261 7.20001 7.54532 7.20001V8.20001C7.61789 8.20001 7.67289 8.20004 7.71969 8.20122C7.76675 8.20241 7.79311 8.20455 7.80789 8.20653C7.82234 8.20848 7.8121 8.2086 7.78991 8.19948C7.76373 8.18871 7.73222 8.16977 7.70386 8.1414L8.41097 7.4343ZM7.9952 6.39999H8.0006V5.39999H7.9952V6.39999Z" fill="#FDB022"/>
</svg>
