<svg width="20" height="20" viewBox="0 0 20 20" fill="none" xmlns="http://www.w3.org/2000/svg">
<path d="M17.4522 14.0298C16.9053 10.7392 15.2027 8.28877 13.7225 6.84949C13.2917 6.43068 13.0764 6.22127 12.6007 6.02747C12.1249 5.83366 11.716 5.83366 10.8982 5.83366H9.10183C8.28401 5.83366 7.87508 5.83366 7.39935 6.02747C6.92361 6.22127 6.70826 6.43068 6.27753 6.84949C4.79735 8.28877 3.09467 10.7392 2.54772 14.0298C2.14077 16.4782 4.39939 18.3337 6.9236 18.3337H13.0764C15.6006 18.3337 17.8592 16.4782 17.4522 14.0298Z" stroke="#07696D"/>
<path d="M6.04718 3.70272C5.87526 3.45248 5.62607 3.11282 6.14083 3.03537C6.66993 2.95575 7.21934 3.31794 7.75712 3.3105C8.24364 3.30377 8.4915 3.08798 8.75742 2.77989C9.03742 2.45547 9.471 1.66699 10 1.66699C10.529 1.66699 10.9626 2.45547 11.2426 2.77989C11.5085 3.08798 11.7563 3.30377 12.2428 3.3105C12.7807 3.31794 13.3301 2.95575 13.8592 3.03537C14.3739 3.11282 14.1248 3.45248 13.9528 3.70272L13.1754 4.83419C12.8429 5.31821 12.6767 5.56022 12.3287 5.69694C11.9808 5.83366 11.5311 5.83366 10.6318 5.83366H9.36817C8.46892 5.83366 8.01925 5.83366 7.6713 5.69694C7.32335 5.56022 7.15708 5.31821 6.82454 4.83419L6.04718 3.70272Z" stroke="#07696D"/>
</svg>
