<svg width="16" height="16" viewBox="0 0 16 16" fill="none" xmlns="http://www.w3.org/2000/svg">
<g clip-path="url(#clip0_1622_2901)">
<path d="M6.40016 5.00004L5.78993 5.78017C5.43919 6.22856 5.50373 6.36368 6.06866 6.36368H9.60016C10.5745 6.36368 10.6668 6.87507 10.6668 7.72732M9.60016 11L10.2104 10.2199C10.5611 9.77152 10.4966 9.63641 9.93167 9.63641H6.40016C5.4258 9.63641 5.3335 9.12501 5.3335 8.27277M14.6668 8.00004C14.6668 11.6819 11.6821 14.6667 8.00016 14.6667C4.31826 14.6667 1.3335 11.6819 1.3335 8.00004C1.3335 4.31814 4.31826 1.33337 8.00016 1.33337C11.6821 1.33337 14.6668 4.31814 14.6668 8.00004Z" stroke="#717680" stroke-linecap="round" stroke-linejoin="round"/>
</g>
<defs>
<clipPath id="clip0_1622_2901">
<rect width="16" height="16" fill="white"/>
</clipPath>
</defs>
</svg>
