<svg width="20" height="22" viewBox="0 0 20 22" fill="none" xmlns="http://www.w3.org/2000/svg">
<path d="M19 9.75C19.4142 9.75 19.75 9.41422 19.75 9C19.75 8.58579 19.4142 8.25 19 8.25V9.75ZM13 4.25C12.5858 4.25 12.25 4.58579 12.25 5C12.25 5.41422 12.5858 5.75 13 5.75V4.25ZM15 5.75C15.4142 5.75 15.75 5.41422 15.75 5C15.75 4.58579 15.4142 4.25 15 4.25V5.75ZM17.682 19.682L17.1516 19.1516L17.682 19.682ZM17.682 2.31802L17.1516 2.84835V2.84835L17.682 2.31802ZM5 12.25C4.58579 12.25 4.25 12.5858 4.25 13C4.25 13.4142 4.58579 13.75 5 13.75V12.25ZM5.52632 13.75C5.94053 13.75 6.27632 13.4142 6.27632 13C6.27632 12.5858 5.94053 12.25 5.52632 12.25V13.75ZM9.73684 12.25C9.32263 12.25 8.98684 12.5858 8.98684 13C8.98684 13.4142 9.32263 13.75 9.73684 13.75V12.25ZM10.2632 13.75C10.6774 13.75 11.0132 13.4142 11.0132 13C11.0132 12.5858 10.6774 12.25 10.2632 12.25V13.75ZM14.4737 12.25C14.0595 12.25 13.7237 12.5858 13.7237 13C13.7237 13.4142 14.0595 13.75 14.4737 13.75V12.25ZM15 13.75C15.4142 13.75 15.75 13.4142 15.75 13C15.75 12.5858 15.4142 12.25 15 12.25V13.75ZM5 16.25C4.58579 16.25 4.25 16.5858 4.25 17C4.25 17.4142 4.58579 17.75 5 17.75V16.25ZM5.52632 17.75C5.94053 17.75 6.27632 17.4142 6.27632 17C6.27632 16.5858 5.94053 16.25 5.52632 16.25V17.75ZM9.73684 16.25C9.32263 16.25 8.98684 16.5858 8.98684 17C8.98684 17.4142 9.32263 17.75 9.73684 17.75V16.25ZM10.2632 17.75C10.6774 17.75 11.0132 17.4142 11.0132 17C11.0132 16.5858 10.6774 16.25 10.2632 16.25V17.75ZM14.4737 16.25C14.0595 16.25 13.7237 16.5858 13.7237 17C13.7237 17.4142 14.0595 17.75 14.4737 17.75V16.25ZM15 17.75C15.4142 17.75 15.75 17.4142 15.75 17C15.75 16.5858 15.4142 16.25 15 16.25V17.75ZM1 9.75H19V8.25H1V9.75ZM13 5.75H15V4.25H13V5.75ZM18.25 10V12H19.75V10H18.25ZM1.75 12V10H0.25V12H1.75ZM10 20.25C7.85748 20.25 6.32603 20.2484 5.16221 20.0919C4.01997 19.9384 3.34478 19.6481 2.84835 19.1516L1.78769 20.2123C2.60928 21.0339 3.65376 21.4026 4.96234 21.5786C6.24934 21.7516 7.89988 21.75 10 21.75V20.25ZM0.25 12C0.25 14.1001 0.248407 15.7507 0.42144 17.0377C0.597374 18.3462 0.966103 19.3907 1.78769 20.2123L2.84835 19.1516C2.35192 18.6552 2.06164 17.98 1.90806 16.8378C1.75159 15.674 1.75 14.1425 1.75 12H0.25ZM18.25 12C18.25 14.1425 18.2484 15.674 18.0919 16.8378C17.9384 17.98 17.6481 18.6552 17.1516 19.1516L18.2123 20.2123C19.0339 19.3907 19.4026 18.3462 19.5786 17.0377C19.7516 15.7507 19.75 14.1001 19.75 12H18.25ZM10 21.75C12.1001 21.75 13.7507 21.7516 15.0377 21.5786C16.3462 21.4026 17.3907 21.0339 18.2123 20.2123L17.1516 19.1516C16.6552 19.6481 15.98 19.9384 14.8378 20.0919C13.674 20.2484 12.1425 20.25 10 20.25V21.75ZM10 1.75C12.1425 1.75 13.674 1.75159 14.8378 1.90806C15.98 2.06164 16.6552 2.35192 17.1516 2.84835L18.2123 1.78769C17.3907 0.966103 16.3462 0.597374 15.0377 0.42144C13.7507 0.248407 12.1001 0.25 10 0.25V1.75ZM19.75 10C19.75 7.89988 19.7516 6.24934 19.5786 4.96234C19.4026 3.65376 19.0339 2.60928 18.2123 1.78769L17.1516 2.84835C17.6481 3.34478 17.9384 4.01997 18.0919 5.16221C18.2484 6.32603 18.25 7.85748 18.25 10H19.75ZM10 0.25C7.89988 0.25 6.24934 0.248407 4.96234 0.42144C3.65376 0.597374 2.60928 0.966103 1.78769 1.78769L2.84835 2.84835C3.34478 2.35192 4.01997 2.06164 5.16221 1.90806C6.32603 1.75159 7.85748 1.75 10 1.75V0.25ZM1.75 10C1.75 7.85748 1.75159 6.32603 1.90806 5.16221C2.06164 4.01997 2.35192 3.34478 2.84835 2.84835L1.78769 1.78769C0.966103 2.60928 0.597374 3.65376 0.42144 4.96234C0.248407 6.24934 0.25 7.89988 0.25 10H1.75ZM5 13.75H5.52632V12.25H5V13.75ZM9.73684 13.75H10.2632V12.25H9.73684V13.75ZM14.4737 13.75H15V12.25H14.4737V13.75ZM5 17.75H5.52632V16.25H5V17.75ZM9.73684 17.75H10.2632V16.25H9.73684V17.75ZM14.4737 17.75H15V16.25H14.4737V17.75Z" fill="white"/>
</svg>
