<svg width="24" height="24" viewBox="0 0 24 24" fill="none" xmlns="http://www.w3.org/2000/svg">
<path d="M21 10.75C21.4142 10.75 21.75 10.4142 21.75 10C21.75 9.58579 21.4142 9.25 21 9.25V10.75ZM15 5.25C14.5858 5.25 14.25 5.58579 14.25 6C14.25 6.41422 14.5858 6.75 15 6.75V5.25ZM17 6.75C17.4142 6.75 17.75 6.41422 17.75 6C17.75 5.58579 17.4142 5.25 17 5.25V6.75ZM19.682 20.682L19.1516 20.1516L19.682 20.682ZM19.682 3.31802L19.1516 3.84835V3.84835L19.682 3.31802ZM7 13.25C6.58579 13.25 6.25 13.5858 6.25 14C6.25 14.4142 6.58579 14.75 7 14.75V13.25ZM7.52632 14.75C7.94053 14.75 8.27632 14.4142 8.27632 14C8.27632 13.5858 7.94053 13.25 7.52632 13.25V14.75ZM11.7368 13.25C11.3226 13.25 10.9868 13.5858 10.9868 14C10.9868 14.4142 11.3226 14.75 11.7368 14.75V13.25ZM12.2632 14.75C12.6774 14.75 13.0132 14.4142 13.0132 14C13.0132 13.5858 12.6774 13.25 12.2632 13.25V14.75ZM16.4737 13.25C16.0595 13.25 15.7237 13.5858 15.7237 14C15.7237 14.4142 16.0595 14.75 16.4737 14.75V13.25ZM17 14.75C17.4142 14.75 17.75 14.4142 17.75 14C17.75 13.5858 17.4142 13.25 17 13.25V14.75ZM7 17.25C6.58579 17.25 6.25 17.5858 6.25 18C6.25 18.4142 6.58579 18.75 7 18.75V17.25ZM7.52632 18.75C7.94053 18.75 8.27632 18.4142 8.27632 18C8.27632 17.5858 7.94053 17.25 7.52632 17.25V18.75ZM11.7368 17.25C11.3226 17.25 10.9868 17.5858 10.9868 18C10.9868 18.4142 11.3226 18.75 11.7368 18.75V17.25ZM12.2632 18.75C12.6774 18.75 13.0132 18.4142 13.0132 18C13.0132 17.5858 12.6774 17.25 12.2632 17.25V18.75ZM16.4737 17.25C16.0595 17.25 15.7237 17.5858 15.7237 18C15.7237 18.4142 16.0595 18.75 16.4737 18.75V17.25ZM17 18.75C17.4142 18.75 17.75 18.4142 17.75 18C17.75 17.5858 17.4142 17.25 17 17.25V18.75ZM3 10.75H21V9.25H3V10.75ZM15 6.75H17V5.25H15V6.75ZM20.25 11V13H21.75V11H20.25ZM3.75 13V11H2.25V13H3.75ZM12 21.25C9.85748 21.25 8.32603 21.2484 7.16221 21.0919C6.01997 20.9384 5.34478 20.6481 4.84835 20.1516L3.78769 21.2123C4.60928 22.0339 5.65376 22.4026 6.96234 22.5786C8.24934 22.7516 9.89988 22.75 12 22.75V21.25ZM2.25 13C2.25 15.1001 2.24841 16.7507 2.42144 18.0377C2.59737 19.3462 2.9661 20.3907 3.78769 21.2123L4.84835 20.1516C4.35192 19.6552 4.06164 18.98 3.90806 17.8378C3.75159 16.674 3.75 15.1425 3.75 13H2.25ZM20.25 13C20.25 15.1425 20.2484 16.674 20.0919 17.8378C19.9384 18.98 19.6481 19.6552 19.1516 20.1516L20.2123 21.2123C21.0339 20.3907 21.4026 19.3462 21.5786 18.0377C21.7516 16.7507 21.75 15.1001 21.75 13H20.25ZM12 22.75C14.1001 22.75 15.7507 22.7516 17.0377 22.5786C18.3462 22.4026 19.3907 22.0339 20.2123 21.2123L19.1516 20.1516C18.6552 20.6481 17.98 20.9384 16.8378 21.0919C15.674 21.2484 14.1425 21.25 12 21.25V22.75ZM12 2.75C14.1425 2.75 15.674 2.75159 16.8378 2.90806C17.98 3.06164 18.6552 3.35192 19.1516 3.84835L20.2123 2.78769C19.3907 1.9661 18.3462 1.59737 17.0377 1.42144C15.7507 1.24841 14.1001 1.25 12 1.25V2.75ZM21.75 11C21.75 8.89988 21.7516 7.24934 21.5786 5.96234C21.4026 4.65376 21.0339 3.60928 20.2123 2.78769L19.1516 3.84835C19.6481 4.34478 19.9384 5.01997 20.0919 6.16221C20.2484 7.32603 20.25 8.85748 20.25 11H21.75ZM12 1.25C9.89988 1.25 8.24934 1.24841 6.96234 1.42144C5.65376 1.59737 4.60928 1.9661 3.78769 2.78769L4.84835 3.84835C5.34478 3.35192 6.01997 3.06164 7.16221 2.90806C8.32603 2.75159 9.85748 2.75 12 2.75V1.25ZM3.75 11C3.75 8.85748 3.75159 7.32603 3.90806 6.16221C4.06164 5.01997 4.35192 4.34478 4.84835 3.84835L3.78769 2.78769C2.9661 3.60928 2.59737 4.65376 2.42144 5.96234C2.24841 7.24934 2.25 8.89988 2.25 11H3.75ZM7 14.75H7.52632V13.25H7V14.75ZM11.7368 14.75H12.2632V13.25H11.7368V14.75ZM16.4737 14.75H17V13.25H16.4737V14.75ZM7 18.75H7.52632V17.25H7V18.75ZM11.7368 18.75H12.2632V17.25H11.7368V18.75ZM16.4737 18.75H17V17.25H16.4737V18.75Z" fill="white"/>
</svg>
