<svg width="21" height="22" viewBox="0 0 21 22" fill="none" xmlns="http://www.w3.org/2000/svg">
<path d="M9.5 11.5C9.22386 11.5 9 11.7239 9 12C9 12.2761 9.22386 12.5 9.5 12.5V11.5ZM14.5 12.5C14.7761 12.5 15 12.2761 15 12C15 11.7239 14.7761 11.5 14.5 11.5V12.5ZM6.5 11.5C6.22386 11.5 6 11.7239 6 12C6 12.2761 6.22386 12.5 6.5 12.5V11.5ZM6.50898 12.5C6.78512 12.5 7.00898 12.2761 7.00898 12C7.00898 11.7239 6.78512 11.5 6.50898 11.5V12.5ZM11.5 16.5C11.7761 16.5 12 16.2761 12 16C12 15.7239 11.7761 15.5 11.5 15.5V16.5ZM6.5 15.5C6.22386 15.5 6 15.7239 6 16C6 16.2761 6.22386 16.5 6.5 16.5V15.5ZM14.5 16.5C14.7761 16.5 15 16.2761 15 16C15 15.7239 14.7761 15.5 14.5 15.5V16.5ZM14.491 15.5C14.2149 15.5 13.991 15.7239 13.991 16C13.991 16.2761 14.2149 16.5 14.491 16.5V15.5ZM17 1C17 0.723858 16.7761 0.5 16.5 0.5C16.2239 0.5 16 0.723858 16 1H17ZM16 3C16 3.27614 16.2239 3.5 16.5 3.5C16.7761 3.5 17 3.27614 17 3H16ZM5 1C5 0.723858 4.77614 0.5 4.5 0.5C4.22386 0.5 4 0.723858 4 1H5ZM4 3C4 3.27614 4.22386 3.5 4.5 3.5C4.77614 3.5 5 3.27614 5 3H4ZM1.5 6.5C1.22386 6.5 1 6.72386 1 7C1 7.27614 1.22386 7.5 1.5 7.5V6.5ZM19.5 7.5C19.7761 7.5 20 7.27614 20 7C20 6.72386 19.7761 6.5 19.5 6.5V7.5ZM9.5 12V12.5H14.5V12V11.5H9.5V12ZM6.5 12V12.5H6.50898V12V11.5H6.5V12ZM11.5 16V15.5H6.5V16V16.5H11.5V16ZM14.5 16V15.5H14.491V16V16.5H14.5V16ZM16.5 1H16V3H16.5H17V1H16.5ZM4.5 1H4V3H4.5H5V1H4.5ZM9.55 2V2.5H11.45V2V1.5H9.55V2ZM20 11.2432H19.5V11.7568H20H20.5V11.2432H20ZM11.45 21V20.5H9.55V21V21.5H11.45V21ZM1 11.7568H1.5V11.2432H1H0.5V11.7568H1ZM9.55 21V20.5C7.5195 20.5 6.05094 20.4988 4.93108 20.336C3.82986 20.1759 3.13887 19.8687 2.61917 19.3068L2.25212 19.6464L1.88507 19.9859C2.61749 20.7777 3.56018 21.1472 4.78725 21.3256C5.99567 21.5012 7.54999 21.5 9.55 21.5V21ZM1 11.7568H0.5C0.5 13.9223 0.499089 15.593 0.660337 16.8896C0.822909 18.1969 1.15778 19.1996 1.88507 19.9859L2.25212 19.6464L2.61917 19.3068C2.09434 18.7395 1.80315 17.9761 1.65269 16.7662C1.50091 15.5458 1.5 13.9485 1.5 11.7568H1ZM20 11.7568H19.5C19.5 13.9485 19.4991 15.5458 19.3473 16.7662C19.1968 17.9761 18.9057 18.7395 18.3808 19.3068L18.7479 19.6464L19.1149 19.9859C19.8422 19.1996 20.1771 18.1969 20.3397 16.8896C20.5009 15.593 20.5 13.9223 20.5 11.7568H20ZM11.45 21V21.5C13.45 21.5 15.0043 21.5012 16.2128 21.3256C17.4398 21.1472 18.3825 20.7777 19.1149 19.9859L18.7479 19.6464L18.3808 19.3068C17.8611 19.8687 17.1701 20.1759 16.0689 20.336C14.9491 20.4988 13.4805 20.5 11.45 20.5V21ZM11.45 2V2.5C13.4805 2.5 14.9491 2.50124 16.0689 2.66401C17.1701 2.82407 17.8611 3.13133 18.3808 3.69316L18.7479 3.35364L19.1149 3.01412C18.3825 2.22232 17.4398 1.85276 16.2128 1.6744C15.0043 1.49876 13.45 1.5 11.45 1.5V2ZM20 11.2432H20.5C20.5 9.07769 20.5009 7.40695 20.3397 6.11036C20.1771 4.80313 19.8422 3.80038 19.1149 3.01412L18.7479 3.35364L18.3808 3.69316C18.9057 4.26054 19.1968 5.02395 19.3473 6.23377C19.4991 7.45425 19.5 9.05149 19.5 11.2432H20ZM9.55 2V1.5C7.54999 1.5 5.99567 1.49876 4.78725 1.6744C3.56018 1.85276 2.61749 2.22232 1.88507 3.01412L2.25212 3.35364L2.61917 3.69316C3.13887 3.13133 3.82986 2.82407 4.93108 2.66401C6.05094 2.50124 7.5195 2.5 9.55 2.5V2ZM1 11.2432H1.5C1.5 9.05149 1.50091 7.45425 1.65269 6.23377C1.80315 5.02395 2.09434 4.26054 2.61917 3.69316L2.25212 3.35364L1.88507 3.01412C1.15778 3.80038 0.822909 4.80313 0.660337 6.11036C0.499089 7.40695 0.5 9.07769 0.5 11.2432H1ZM1.5 7V7.5H19.5V7V6.5H1.5V7Z" fill="white"/>
</svg>
