<svg width="24" height="24" viewBox="0 0 24 24" fill="none" xmlns="http://www.w3.org/2000/svg">
<path d="M18 2C18 1.72386 17.7761 1.5 17.5 1.5C17.2239 1.5 17 1.72386 17 2H18ZM17 4C17 4.27614 17.2239 4.5 17.5 4.5C17.7761 4.5 18 4.27614 18 4H17ZM6 2C6 1.72386 5.77614 1.5 5.5 1.5C5.22386 1.5 5 1.72386 5 2H6ZM5 4C5 4.27614 5.22386 4.5 5.5 4.5C5.77614 4.5 6 4.27614 6 4H5ZM11.4955 12.5C11.2194 12.5 10.9955 12.7239 10.9955 13C10.9955 13.2761 11.2194 13.5 11.4955 13.5V12.5ZM11.5045 13.5C11.7806 13.5 12.0045 13.2761 12.0045 13C12.0045 12.7239 11.7806 12.5 11.5045 12.5V13.5ZM11.4955 16.5C11.2194 16.5 10.9955 16.7239 10.9955 17C10.9955 17.2761 11.2194 17.5 11.4955 17.5V16.5ZM11.5045 17.5C11.7806 17.5 12.0045 17.2761 12.0045 17C12.0045 16.7239 11.7806 16.5 11.5045 16.5V17.5ZM15.491 12.5C15.2149 12.5 14.991 12.7239 14.991 13C14.991 13.2761 15.2149 13.5 15.491 13.5V12.5ZM15.5 13.5C15.7761 13.5 16 13.2761 16 13C16 12.7239 15.7761 12.5 15.5 12.5V13.5ZM7.5 12.5C7.22386 12.5 7 12.7239 7 13C7 13.2761 7.22386 13.5 7.5 13.5V12.5ZM7.50897 13.5C7.78511 13.5 8.00897 13.2761 8.00897 13C8.00897 12.7239 7.78511 12.5 7.50897 12.5V13.5ZM7.5 16.5C7.22386 16.5 7 16.7239 7 17C7 17.2761 7.22386 17.5 7.5 17.5V16.5ZM7.50897 17.5C7.78511 17.5 8.00897 17.2761 8.00897 17C8.00897 16.7239 7.78511 16.5 7.50897 16.5V17.5ZM3 7.5C2.72386 7.5 2.5 7.72386 2.5 8C2.5 8.27614 2.72386 8.5 3 8.5V7.5ZM20 8.5C20.2761 8.5 20.5 8.27614 20.5 8C20.5 7.72386 20.2761 7.5 20 7.5V8.5ZM2.5 7.5C2.22386 7.5 2 7.72386 2 8C2 8.27614 2.22386 8.5 2.5 8.5V7.5ZM20.5 8.5C20.7761 8.5 21 8.27614 21 8C21 7.72386 20.7761 7.5 20.5 7.5V8.5ZM17.5 2H17V4H17.5H18V2H17.5ZM5.5 2H5V4H5.5H6V2H5.5ZM11.4955 13V13.5H11.5045V13V12.5H11.4955V13ZM11.4955 17V17.5H11.5045V17V16.5H11.4955V17ZM15.491 13V13.5H15.5V13V12.5H15.491V13ZM7.5 13V13.5H7.50897V13V12.5H7.5V13ZM7.5 17V17.5H7.50897V17V16.5H7.5V17ZM3 8V8.5H20V8V7.5H3V8ZM10.55 3V3.5H12.45V3V2.5H10.55V3ZM21 12.2432H20.5V12.7568H21H21.5V12.2432H21ZM12.45 22V21.5H10.55V22V22.5H12.45V22ZM2 12.7568H2.5V12.2432H2H1.5V12.7568H2ZM10.55 22V21.5C8.5195 21.5 7.05094 21.4988 5.93108 21.336C4.82986 21.1759 4.13887 20.8687 3.61917 20.3068L3.25212 20.6464L2.88507 20.9859C3.61749 21.7777 4.56018 22.1472 5.78725 22.3256C6.99567 22.5012 8.54999 22.5 10.55 22.5V22ZM2 12.7568H1.5C1.5 14.9223 1.49909 16.593 1.66034 17.8896C1.82291 19.1969 2.15778 20.1996 2.88507 20.9859L3.25212 20.6464L3.61917 20.3068C3.09434 19.7395 2.80315 18.9761 2.65269 17.7662C2.50091 16.5458 2.5 14.9485 2.5 12.7568H2ZM21 12.7568H20.5C20.5 14.9485 20.4991 16.5458 20.3473 17.7662C20.1968 18.9761 19.9057 19.7395 19.3808 20.3068L19.7479 20.6464L20.1149 20.9859C20.8422 20.1996 21.1771 19.1969 21.3397 17.8896C21.5009 16.593 21.5 14.9223 21.5 12.7568H21ZM12.45 22V22.5C14.45 22.5 16.0043 22.5012 17.2128 22.3256C18.4398 22.1472 19.3825 21.7777 20.1149 20.9859L19.7479 20.6464L19.3808 20.3068C18.8611 20.8687 18.1701 21.1759 17.0689 21.336C15.9491 21.4988 14.4805 21.5 12.45 21.5V22ZM12.45 3V3.5C14.4805 3.5 15.9491 3.50124 17.0689 3.66401C18.1701 3.82407 18.8611 4.13133 19.3808 4.69316L19.7479 4.35364L20.1149 4.01412C19.3825 3.22232 18.4398 2.85276 17.2128 2.6744C16.0043 2.49876 14.45 2.5 12.45 2.5V3ZM21 12.2432H21.5C21.5 10.0777 21.5009 8.40695 21.3397 7.11036C21.1771 5.80313 20.8422 4.80038 20.1149 4.01412L19.7479 4.35364L19.3808 4.69316C19.9057 5.26054 20.1968 6.02395 20.3473 7.23377C20.4991 8.45425 20.5 10.0515 20.5 12.2432H21ZM10.55 3V2.5C8.54999 2.5 6.99567 2.49876 5.78725 2.6744C4.56018 2.85276 3.61749 3.22232 2.88507 4.01412L3.25212 4.35364L3.61917 4.69316C4.13887 4.13133 4.82986 3.82407 5.93108 3.66401C7.05094 3.50124 8.5195 3.5 10.55 3.5V3ZM2 12.2432H2.5C2.5 10.0515 2.50091 8.45425 2.65269 7.23377C2.80315 6.02395 3.09434 5.26054 3.61917 4.69316L3.25212 4.35364L2.88507 4.01412C2.15778 4.80038 1.82291 5.80313 1.66034 7.11036C1.49909 8.40695 1.5 10.0777 1.5 12.2432H2ZM2.5 8V8.5H20.5V8V7.5H2.5V8Z" fill="#717680"/>
</svg>
