<svg width="20" height="20" viewBox="0 0 20 20" fill="none" xmlns="http://www.w3.org/2000/svg">
<path d="M9.25623 4.64654C9.47431 5.02223 9.58331 5.21007 9.58331 5.41634C9.58331 5.62261 9.47431 5.81045 9.25623 6.18614L8.21501 7.97987C7.99695 8.35559 7.8879 8.54342 7.70831 8.64651C7.52872 8.74967 7.31065 8.74967 6.8745 8.74967H4.79212C4.35598 8.74967 4.1379 8.74967 3.95831 8.64651C3.77872 8.54342 3.66968 8.35559 3.45161 7.97987L2.41042 6.18614C2.19235 5.81045 2.08331 5.62261 2.08331 5.41634C2.08331 5.21007 2.19235 5.02223 2.41042 4.64654L3.45161 2.85281C3.66968 2.47712 3.77872 2.28927 3.95831 2.18614C4.1379 2.08301 4.35598 2.08301 4.79212 2.08301H6.8745C7.31065 2.08301 7.52872 2.08301 7.70831 2.18614C7.8879 2.28927 7.99695 2.47712 8.21501 2.85281L9.25623 4.64654Z" stroke="#141B34" stroke-linecap="round" stroke-linejoin="round"/>
<path d="M17.5896 9.64651C17.8077 10.0223 17.9167 10.2101 17.9167 10.4163C17.9167 10.6226 17.8077 10.8104 17.5896 11.1862L16.5484 12.9798C16.3304 13.3556 16.2213 13.5434 16.0417 13.6465C15.8621 13.7497 15.644 13.7497 15.2079 13.7497H13.1255C12.6894 13.7497 12.4713 13.7497 12.2917 13.6465C12.1121 13.5434 12.003 13.3556 11.785 12.9798L10.7438 11.1862C10.5257 10.8104 10.4167 10.6226 10.4167 10.4163C10.4167 10.2101 10.5257 10.0223 10.7438 9.64651L11.785 7.85281C12.003 7.47712 12.1121 7.28927 12.2917 7.18614C12.4713 7.08301 12.6894 7.08301 13.1255 7.08301H15.2079C15.644 7.08301 15.8621 7.08301 16.0417 7.18614C16.2213 7.28927 16.3304 7.47712 16.5484 7.85281L17.5896 9.64651Z" stroke="#141B34" stroke-linecap="round" stroke-linejoin="round"/>
<path d="M9.25623 13.8135C9.47431 14.1893 9.58331 14.3771 9.58331 14.5833C9.58331 14.7896 9.47431 14.9774 9.25623 15.3532L8.21501 17.1468C7.99695 17.5226 7.8879 17.7104 7.70831 17.8135C7.52872 17.9167 7.31065 17.9167 6.8745 17.9167H4.79212C4.35598 17.9167 4.1379 17.9167 3.95831 17.8135C3.77872 17.7104 3.66968 17.5226 3.45161 17.1468L2.41042 15.3532C2.19235 14.9774 2.08331 14.7896 2.08331 14.5833C2.08331 14.3771 2.19235 14.1893 2.41042 13.8135L3.45161 12.0198C3.66968 11.6441 3.77872 11.4563 3.95831 11.3532C4.1379 11.25 4.35598 11.25 4.79212 11.25H6.8745C7.31065 11.25 7.52872 11.25 7.70831 11.3532C7.8879 11.4563 7.99695 11.6441 8.21501 12.0198L9.25623 13.8135Z" stroke="#141B34" stroke-linecap="round" stroke-linejoin="round"/>
</svg>
