<svg width="24" height="24" viewBox="0 0 24 24" fill="none" xmlns="http://www.w3.org/2000/svg">
<path d="M9.00314 12.8222C8.64333 12.617 8.1853 12.7423 7.98009 13.1021C7.77488 13.4619 7.90021 13.92 8.26002 14.1252L9.00314 12.8222ZM10.6526 15.3684L10.009 15.7534C10.152 15.9925 10.4158 16.1326 10.694 16.1173C10.9722 16.1019 11.2189 15.9336 11.3347 15.6802L10.6526 15.3684ZM15.7283 10.1317C16.0917 9.93297 16.2252 9.47724 16.0264 9.11382C15.8277 8.75041 15.372 8.61691 15.0086 8.81566L15.7283 10.1317ZM12 19.25C10.0932 19.25 8.73851 19.2484 7.71085 19.1102C6.70476 18.975 6.12511 18.7213 5.7019 18.2981L4.64124 19.3588C5.38961 20.1071 6.33856 20.4392 7.51098 20.5969C8.66182 20.7516 10.1356 20.75 12 20.75V19.25ZM3.25 12C3.25 13.8644 3.24841 15.3382 3.40313 16.489C3.56076 17.6614 3.89288 18.6104 4.64124 19.3588L5.7019 18.2981C5.27869 17.8749 5.02502 17.2952 4.88976 16.2892C4.75159 15.2615 4.75 13.9068 4.75 12H3.25ZM19.25 12C19.25 13.9068 19.2484 15.2615 19.1102 16.2892C18.975 17.2952 18.7213 17.8749 18.2981 18.2981L19.3588 19.3588C20.1071 18.6104 20.4392 17.6614 20.5969 16.489C20.7516 15.3382 20.75 13.8644 20.75 12H19.25ZM12 20.75C13.8644 20.75 15.3382 20.7516 16.489 20.5969C17.6614 20.4392 18.6104 20.1071 19.3588 19.3588L18.2981 18.2981C17.8749 18.7213 17.2952 18.975 16.2892 19.1102C15.2615 19.2484 13.9068 19.25 12 19.25V20.75ZM12 4.75C13.9068 4.75 15.2615 4.75159 16.2892 4.88976C17.2952 5.02502 17.8749 5.27869 18.2981 5.7019L19.3588 4.64124C18.6104 3.89288 17.6614 3.56076 16.489 3.40313C15.3382 3.24841 13.8644 3.25 12 3.25V4.75ZM20.75 12C20.75 10.1356 20.7516 8.66182 20.5969 7.51098C20.4392 6.33856 20.1071 5.38961 19.3588 4.64124L18.2981 5.7019C18.7213 6.12511 18.975 6.70476 19.1102 7.71085C19.2484 8.73851 19.25 10.0932 19.25 12H20.75ZM12 3.25C10.1356 3.25 8.66182 3.24841 7.51098 3.40313C6.33856 3.56076 5.38961 3.89288 4.64124 4.64124L5.7019 5.7019C6.12511 5.27869 6.70476 5.02502 7.71085 4.88976C8.73851 4.75159 10.0932 4.75 12 4.75V3.25ZM4.75 12C4.75 10.0932 4.75159 8.73851 4.88976 7.71085C5.02502 6.70476 5.27869 6.12511 5.7019 5.7019L4.64124 4.64124C3.89288 5.38961 3.56076 6.33856 3.40313 7.51098C3.24841 8.66182 3.25 10.1356 3.25 12H4.75ZM8.63158 13.4737C8.26002 14.1252 8.25989 14.1251 8.25977 14.125C8.25973 14.125 8.25961 14.1249 8.25955 14.1249C8.25941 14.1248 8.25929 14.1248 8.2592 14.1247C8.25901 14.1246 8.25889 14.1245 8.25886 14.1245C8.25879 14.1245 8.25904 14.1246 8.25959 14.1249C8.2607 14.1256 8.26304 14.1269 8.26654 14.129C8.27354 14.1331 8.28519 14.14 8.30101 14.1497C8.33267 14.1689 8.38083 14.1989 8.44166 14.2387C8.56374 14.3187 8.73455 14.437 8.92432 14.587C9.31354 14.8948 9.73911 15.3022 10.009 15.7534L11.2963 14.9834C10.8925 14.3083 10.3075 13.7684 9.85463 13.4104C9.62334 13.2275 9.41521 13.0833 9.2636 12.984C9.18759 12.9342 9.12522 12.8953 9.08057 12.8681C9.05823 12.8546 9.04027 12.8439 9.02721 12.8362C9.02068 12.8323 9.01537 12.8292 9.01134 12.8269C9.00932 12.8257 9.00762 12.8248 9.00626 12.824C9.00557 12.8236 9.00497 12.8232 9.00445 12.8229C9.00419 12.8228 9.00395 12.8227 9.00373 12.8225C9.00363 12.8225 9.00348 12.8224 9.00342 12.8224C9.00328 12.8223 9.00314 12.8222 8.63158 13.4737ZM10.6526 15.3684C11.3347 15.6802 11.3347 15.6804 11.3346 15.6804C11.3346 15.6805 11.3346 15.6805 11.3346 15.6805C11.3346 15.6806 11.3346 15.6805 11.3346 15.6804C11.3347 15.6803 11.3349 15.6798 11.3353 15.6791C11.3359 15.6776 11.3371 15.6751 11.3387 15.6716C11.342 15.6646 11.3471 15.6536 11.3542 15.6387C11.3683 15.6089 11.3898 15.5637 11.4185 15.5051C11.4759 15.3877 11.5617 15.2164 11.6734 15.0055C11.8971 14.5828 12.2224 14.0048 12.628 13.3838C13.4575 12.1135 14.5524 10.7748 15.7283 10.1317L15.0086 8.81566C13.4897 9.64628 12.2267 11.255 11.372 12.5636C10.9355 13.232 10.5871 13.8514 10.3477 14.3037C10.2277 14.5303 10.1346 14.7159 10.071 14.8461C10.0391 14.9112 10.0146 14.9625 9.9978 14.9982C9.98937 15.016 9.98286 15.0299 9.9783 15.0398C9.97603 15.0447 9.97423 15.0485 9.97294 15.0514C9.97229 15.0528 9.97176 15.0539 9.97136 15.0548C9.97116 15.0552 9.97099 15.0556 9.97085 15.0559C9.97078 15.056 9.9707 15.0562 9.97066 15.0563C9.97059 15.0565 9.97053 15.0566 10.6526 15.3684Z" fill="#00B3B0"/>
</svg>
