<svg width="18" height="18" viewBox="0 0 18 18" fill="none" xmlns="http://www.w3.org/2000/svg">
<path d="M6.00314 9.82219C5.64333 9.61698 5.1853 9.74231 4.98009 10.1021C4.77488 10.4619 4.90021 10.92 5.26002 11.1252L6.00314 9.82219ZM7.65263 12.3684L7.00899 12.7534C7.152 12.9925 7.41578 13.1326 7.69396 13.1173C7.97215 13.1019 8.2189 12.9336 8.33474 12.6802L7.65263 12.3684ZM12.7283 7.13171C13.0917 6.93297 13.2252 6.47724 13.0264 6.11382C12.8277 5.75041 12.372 5.61691 12.0086 5.81566L12.7283 7.13171ZM9 16.25C7.09318 16.25 5.73851 16.2484 4.71085 16.1102C3.70476 15.975 3.12511 15.7213 2.7019 15.2981L1.64124 16.3588C2.38961 17.1071 3.33856 17.4392 4.51098 17.5969C5.66182 17.7516 7.13558 17.75 9 17.75V16.25ZM0.25 9C0.25 10.8644 0.248407 12.3382 0.403135 13.489C0.560763 14.6614 0.89288 15.6104 1.64124 16.3588L2.7019 15.2981C2.27869 14.8749 2.02502 14.2952 1.88976 13.2892C1.75159 12.2615 1.75 10.9068 1.75 9H0.25ZM16.25 9C16.25 10.9068 16.2484 12.2615 16.1102 13.2892C15.975 14.2952 15.7213 14.8749 15.2981 15.2981L16.3588 16.3588C17.1071 15.6104 17.4392 14.6614 17.5969 13.489C17.7516 12.3382 17.75 10.8644 17.75 9H16.25ZM9 17.75C10.8644 17.75 12.3382 17.7516 13.489 17.5969C14.6614 17.4392 15.6104 17.1071 16.3588 16.3588L15.2981 15.2981C14.8749 15.7213 14.2952 15.975 13.2892 16.1102C12.2615 16.2484 10.9068 16.25 9 16.25V17.75ZM9 1.75C10.9068 1.75 12.2615 1.75159 13.2892 1.88976C14.2952 2.02502 14.8749 2.27869 15.2981 2.7019L16.3588 1.64124C15.6104 0.89288 14.6614 0.560763 13.489 0.403135C12.3382 0.248407 10.8644 0.25 9 0.25V1.75ZM17.75 9C17.75 7.13558 17.7516 5.66182 17.5969 4.51098C17.4392 3.33856 17.1071 2.38961 16.3588 1.64124L15.2981 2.7019C15.7213 3.12511 15.975 3.70476 16.1102 4.71085C16.2484 5.73851 16.25 7.09318 16.25 9H17.75ZM9 0.25C7.13558 0.25 5.66182 0.248407 4.51098 0.403135C3.33856 0.560763 2.38961 0.89288 1.64124 1.64124L2.7019 2.7019C3.12511 2.27869 3.70476 2.02502 4.71085 1.88976C5.73851 1.75159 7.09318 1.75 9 1.75V0.25ZM1.75 9C1.75 7.09318 1.75159 5.73851 1.88976 4.71085C2.02502 3.70476 2.27869 3.12511 2.7019 2.7019L1.64124 1.64124C0.89288 2.38961 0.560763 3.33856 0.403135 4.51098C0.248407 5.66182 0.25 7.13558 0.25 9H1.75ZM5.63158 10.4737C5.26002 11.1252 5.25989 11.1251 5.25977 11.125C5.25973 11.125 5.25961 11.1249 5.25955 11.1249C5.25941 11.1248 5.25929 11.1248 5.2592 11.1247C5.25901 11.1246 5.25889 11.1245 5.25886 11.1245C5.25879 11.1245 5.25904 11.1246 5.25959 11.1249C5.2607 11.1256 5.26304 11.1269 5.26654 11.129C5.27354 11.1331 5.28519 11.14 5.30101 11.1497C5.33267 11.1689 5.38083 11.1989 5.44166 11.2387C5.56374 11.3187 5.73455 11.437 5.92432 11.587C6.31354 11.8948 6.73911 12.3022 7.00899 12.7534L8.29628 11.9834C7.89247 11.3083 7.30751 10.7684 6.85463 10.4104C6.62334 10.2275 6.41521 10.0833 6.2636 9.98397C6.18759 9.93418 6.12522 9.89531 6.08057 9.86814C6.05823 9.85455 6.04027 9.84387 6.02721 9.83618C6.02068 9.83234 6.01537 9.82924 6.01134 9.82691C6.00932 9.82574 6.00762 9.82476 6.00626 9.82398C6.00557 9.82358 6.00497 9.82324 6.00445 9.82294C6.00419 9.82279 6.00395 9.82266 6.00373 9.82253C6.00363 9.82247 6.00348 9.82238 6.00342 9.82235C6.00328 9.82227 6.00314 9.82219 5.63158 10.4737ZM7.65263 12.3684C8.33474 12.6802 8.33469 12.6804 8.33465 12.6804C8.33464 12.6805 8.33461 12.6805 8.3346 12.6805C8.33458 12.6806 8.3346 12.6805 8.33464 12.6804C8.33473 12.6803 8.33494 12.6798 8.33528 12.6791C8.33594 12.6776 8.33709 12.6751 8.33872 12.6716C8.34197 12.6646 8.34714 12.6536 8.35418 12.6387C8.36825 12.6089 8.3898 12.5637 8.41849 12.5051C8.47589 12.3877 8.56173 12.2164 8.67339 12.0055C8.8971 11.5828 9.22238 11.0048 9.62795 10.3838C10.4575 9.11346 11.5524 7.77477 12.7283 7.13171L12.0086 5.81566C10.4897 6.64628 9.22667 8.25496 8.37205 9.56359C7.93552 10.232 7.58711 10.8514 7.34766 11.3037C7.22774 11.5303 7.13464 11.7159 7.07099 11.8461C7.03915 11.9112 7.01464 11.9625 6.9978 11.9982C6.98937 12.016 6.98286 12.0299 6.9783 12.0398C6.97603 12.0447 6.97423 12.0485 6.97294 12.0514C6.97229 12.0528 6.97176 12.0539 6.97136 12.0548C6.97116 12.0552 6.97099 12.0556 6.97085 12.0559C6.97078 12.056 6.9707 12.0562 6.97066 12.0563C6.97059 12.0565 6.97053 12.0566 7.65263 12.3684Z" fill="#00B3B0"/>
</svg>
