<svg width="20" height="20" viewBox="0 0 20 20" fill="none" xmlns="http://www.w3.org/2000/svg">
<path d="M10.8333 4.70723C8.46499 2.33888 5.17369 1.79033 3.48201 3.48201M3.48201 3.48201C1.79033 5.17369 2.33888 8.46499 4.70723 10.8333M3.48201 3.48201C3.68621 4.50303 4.76874 6.7286 7.46422 7.46373M7.67595 16.4907C9.41462 18.2294 12.7973 17.6656 15.2315 15.2315C17.6656 12.7973 18.2294 9.41462 16.4907 7.67595M7.67595 16.4907C5.93729 14.752 6.50108 11.3693 8.9352 8.9352C11.3693 6.50108 14.752 5.93729 16.4907 7.67595M7.67595 16.4907C8.9352 16.071 11.319 15.7264 12.3984 11.7688C13.154 8.99842 15.4413 7.88583 16.4907 7.67595" stroke="#CB8917" stroke-linecap="round" stroke-linejoin="round"/>
</svg>
