<svg width="20" height="22" viewBox="0 0 20 22" fill="none" xmlns="http://www.w3.org/2000/svg">
<path d="M16.8805 14.5251L16.3815 14.4942L16.8805 14.5251ZM17.9993 4.53085C18.0163 4.25523 17.8067 4.01799 17.5311 4.00095C17.2555 3.98391 17.0182 4.19353 17.0012 4.46915L17.9993 4.53085ZM2.99934 4.46987C2.9827 4.19423 2.74575 3.98427 2.47011 4.00091C2.19447 4.01755 1.98451 4.25449 2.00115 4.53013L2.99934 4.46987ZM3.10485 14.5152L3.60394 14.485L3.10485 14.5152ZM16.001 19.2879L16.4111 19.5738L16.001 19.2879ZM14.8009 20.416L14.5408 19.989H14.5408L14.8009 20.416ZM3.97893 19.2848L4.38933 18.9992H4.38933L3.97893 19.2848ZM5.1793 20.4149L5.43965 19.9881L5.1793 20.4149ZM7.00024 10.2349C6.7241 10.2349 6.50024 10.4587 6.50024 10.7349C6.50024 11.011 6.7241 11.2349 7.00024 11.2349V10.2349ZM13.0002 11.2349C13.2764 11.2349 13.5002 11.011 13.5002 10.7349C13.5002 10.4587 13.2764 10.2349 13.0002 10.2349V11.2349ZM8.50024 14.1543C8.2241 14.1543 8.00024 14.3782 8.00024 14.6543C8.00024 14.9304 8.2241 15.1543 8.50024 15.1543V14.1543ZM11.5002 15.1543C11.7764 15.1543 12.0002 14.9304 12.0002 14.6543C12.0002 14.3782 11.7764 14.1543 11.5002 14.1543V15.1543ZM1.00024 4C0.724102 4 0.500244 4.22386 0.500244 4.5C0.500244 4.77614 0.724102 5 1.00024 5V4ZM19.0002 5C19.2764 5 19.5002 4.77614 19.5002 4.5C19.5002 4.22386 19.2764 4 19.0002 4V5ZM13.3731 3.09173L12.9232 3.30983V3.30983L13.3731 3.09173ZM6.65866 3.17126L7.11362 3.37864L6.65866 3.17126ZM7.71735 1.41317L8.02169 1.80988V1.80988L7.71735 1.41317ZM7.99574 1.23412L7.761 0.79265L7.76099 0.79265L7.99574 1.23412ZM12.3018 1.39681L12.6007 0.996008L12.6007 0.996006L12.3018 1.39681ZM12.0271 1.2247L11.7968 1.66853V1.66853L12.0271 1.2247ZM17.3796 14.5559L17.9993 4.53085L17.0012 4.46915L16.3815 14.4942L17.3796 14.5559ZM2.00115 4.53013L2.60576 14.5453L3.60394 14.485L2.99934 4.46987L2.00115 4.53013ZM16.3815 14.4942C16.3017 15.7846 16.2435 16.7171 16.1283 17.4434C16.0144 18.1616 15.8512 18.6285 15.5909 19.0019L16.4111 19.5738C16.7928 19.0265 16.9902 18.3927 17.116 17.6C17.2404 16.8155 17.301 15.8269 17.3796 14.5559L16.3815 14.4942ZM9.99299 21.5C11.2664 21.5 12.2568 21.5005 13.0476 21.4247C13.8464 21.3481 14.4912 21.1902 15.0611 20.843L14.5408 19.989C14.1521 20.2258 13.676 20.3599 12.9521 20.4293C12.2201 20.4995 11.2858 20.5 9.99299 20.5V21.5ZM15.5909 19.0019C15.3131 19.4002 14.9555 19.7364 14.5408 19.989L15.0611 20.843C15.5943 20.5182 16.054 20.086 16.4111 19.5738L15.5909 19.0019ZM2.60576 14.5453C2.6826 15.8181 2.74182 16.808 2.86535 17.5937C2.99013 18.3874 3.18696 19.0222 3.56853 19.5704L4.38933 18.9992C4.12908 18.6253 3.9663 18.1577 3.85321 17.4384C3.73886 16.711 3.68195 15.7772 3.60394 14.485L2.60576 14.5453ZM9.99299 20.5C8.69845 20.5 7.76291 20.4995 7.03 20.4292C6.30518 20.3596 5.82862 20.2253 5.43965 19.9881L4.91894 20.8418C5.48923 21.1896 6.1347 21.3479 6.9345 21.4246C7.72622 21.5005 8.7179 21.5 9.99299 21.5V20.5ZM3.56853 19.5704C3.9255 20.0834 4.38541 20.5164 4.91894 20.8418L5.43965 19.9881C5.02468 19.735 4.66698 19.3982 4.38933 18.9992L3.56853 19.5704ZM7.00024 11.2349H13.0002V10.2349H7.00024V11.2349ZM8.50024 15.1543H11.5002V14.1543H8.50024V15.1543ZM1.00024 5H6.05298V4H1.00024V5ZM6.05298 5H14.0558V4H6.05298V5ZM14.0558 5H19.0002V4H14.0558V5ZM12.9232 3.30983L13.6059 4.7181L14.5057 4.2819L13.823 2.87362L12.9232 3.30983ZM6.2037 2.96387L5.59802 4.29261L6.50794 4.70739L7.11362 3.37864L6.2037 2.96387ZM7.11362 3.37864C7.33836 2.88562 7.49358 2.54624 7.63968 2.29018C7.78107 2.04236 7.89565 1.90657 8.02169 1.80988L7.41301 1.01646C7.1434 1.2233 6.94964 1.4817 6.77111 1.79462C6.59728 2.09929 6.42098 2.48719 6.2037 2.96387L7.11362 3.37864ZM10.0346 0.5C9.51072 0.5 9.08463 0.499522 8.7353 0.531324C8.37652 0.563987 8.06103 0.633112 7.761 0.79265L8.23048 1.67559C8.37074 1.60101 8.54183 1.55307 8.82597 1.52721C9.11956 1.50048 9.49275 1.5 10.0346 1.5V0.5ZM8.02169 1.80988C8.08745 1.75942 8.15729 1.71451 8.23048 1.67559L7.76099 0.79265C7.63902 0.857509 7.52262 0.932369 7.41301 1.01646L8.02169 1.80988ZM13.823 2.87362C13.6001 2.41381 13.4192 2.03944 13.2428 1.74554C13.0615 1.44362 12.8671 1.19472 12.6007 0.996008L12.0028 1.7976C12.1275 1.89061 12.242 2.02143 12.3854 2.26018C12.5335 2.50694 12.6926 2.83417 12.9232 3.30983L13.823 2.87362ZM10.0346 1.5C10.5632 1.5 10.9271 1.50046 11.2137 1.5261C11.4911 1.55091 11.6587 1.59689 11.7968 1.66853L12.2573 0.780876C11.9623 0.627814 11.6535 0.561445 11.3028 0.530076C10.9614 0.499539 10.5456 0.5 10.0346 0.5V1.5ZM12.6007 0.996006C12.4923 0.915126 12.3774 0.843179 12.2573 0.780876L11.7968 1.66853C11.8689 1.70591 11.9378 1.74907 12.0028 1.79761L12.6007 0.996006Z" fill="#717680"/>
</svg>
