<svg width="20" height="21" viewBox="0 0 20 21" fill="none" xmlns="http://www.w3.org/2000/svg">
<path d="M9.25623 5.14654C9.47431 5.52223 9.58331 5.71007 9.58331 5.91634C9.58331 6.12261 9.47431 6.31045 9.25623 6.68614L8.21501 8.47987C7.99695 8.85559 7.8879 9.04342 7.70831 9.14651C7.52872 9.24967 7.31065 9.24967 6.8745 9.24967H4.79212C4.35598 9.24967 4.1379 9.24967 3.95831 9.14651C3.77872 9.04342 3.66968 8.85559 3.45161 8.47987L2.41042 6.68614C2.19235 6.31045 2.08331 6.12261 2.08331 5.91634C2.08331 5.71007 2.19235 5.52223 2.41042 5.14654L3.45161 3.35281C3.66968 2.97712 3.77872 2.78927 3.95831 2.68614C4.1379 2.58301 4.35598 2.58301 4.79212 2.58301H6.8745C7.31065 2.58301 7.52872 2.58301 7.70831 2.68614C7.8879 2.78927 7.99695 2.97712 8.21501 3.35281L9.25623 5.14654Z" stroke="#141B34" stroke-linecap="round" stroke-linejoin="round"/>
<path d="M17.5896 10.1465C17.8076 10.5223 17.9166 10.7101 17.9166 10.9163C17.9166 11.1226 17.8076 11.3104 17.5896 11.6862L16.5483 13.4798C16.3303 13.8556 16.2212 14.0434 16.0416 14.1465C15.8621 14.2497 15.644 14.2497 15.2078 14.2497H13.1255C12.6893 14.2497 12.4712 14.2497 12.2916 14.1465C12.1121 14.0434 12.003 13.8556 11.785 13.4798L10.7437 11.6862C10.5256 11.3104 10.4166 11.1226 10.4166 10.9163C10.4166 10.7101 10.5256 10.5223 10.7437 10.1465L11.785 8.35281C12.003 7.97712 12.1121 7.78927 12.2916 7.68614C12.4712 7.58301 12.6893 7.58301 13.1255 7.58301H15.2078C15.644 7.58301 15.8621 7.58301 16.0416 7.68614C16.2212 7.78927 16.3303 7.97712 16.5483 8.35281L17.5896 10.1465Z" stroke="#141B34" stroke-linecap="round" stroke-linejoin="round"/>
<path d="M9.25623 14.3132C9.47431 14.6889 9.58331 14.8768 9.58331 15.083C9.58331 15.2893 9.47431 15.4771 9.25623 15.8528L8.21501 17.6465C7.99695 18.0223 7.8879 18.2101 7.70831 18.3132C7.52872 18.4163 7.31065 18.4163 6.8745 18.4163H4.79212C4.35598 18.4163 4.1379 18.4163 3.95831 18.3132C3.77872 18.2101 3.66968 18.0223 3.45161 17.6465L2.41042 15.8528C2.19235 15.4771 2.08331 15.2893 2.08331 15.083C2.08331 14.8768 2.19235 14.6889 2.41042 14.3132L3.45161 12.5195C3.66968 12.1438 3.77872 11.9559 3.95831 11.8528C4.1379 11.7497 4.35598 11.7497 4.79212 11.7497H6.8745C7.31065 11.7497 7.52872 11.7497 7.70831 11.8528C7.8879 11.9559 7.99695 12.1438 8.21501 12.5195L9.25623 14.3132Z" stroke="#141B34" stroke-linecap="round" stroke-linejoin="round"/>
</svg>
