<svg width="20" height="20" viewBox="0 0 20 20" fill="none" xmlns="http://www.w3.org/2000/svg">
<path d="M6.49992 10.8333H14.4999M5.16659 8.16667L6.00155 9.22547C6.46769 9.8166 6.61786 10.5925 6.40527 11.3113L5.95518 12.8333M15.8333 8.16667L14.9983 9.22547C14.5321 9.8166 14.382 10.5925 14.5946 11.3113L15.0447 12.8333M15.5601 5.5H5.43975C5.28451 5.5 5.20689 5.5 5.13403 5.51103C4.79923 5.56173 4.49161 5.78447 4.27471 6.13322C4.2275 6.20911 4.18445 6.29649 4.09834 6.47123C3.96546 6.74089 3.89901 6.87571 3.87181 6.97871C3.74115 7.47347 3.9545 8.01279 4.33127 8.14015C4.40971 8.16667 4.52949 8.16667 4.76904 8.16667H16.2308C16.4704 8.16667 16.5901 8.16667 16.6686 8.14015C17.0453 8.01279 17.2587 7.47347 17.1281 6.97871C17.1009 6.87572 17.0344 6.74085 16.9015 6.47123C16.8154 6.29651 16.7723 6.20911 16.7251 6.13322C16.5083 5.78447 16.2006 5.56173 15.8658 5.51103C15.7929 5.5 15.7153 5.5 15.5601 5.5ZM7.16659 14.1667C7.16659 14.9031 6.56963 15.5 5.83325 15.5C5.09687 15.5 4.49992 14.9031 4.49992 14.1667C4.49992 13.4303 5.09687 12.8333 5.83325 12.8333C6.56963 12.8333 7.16659 13.4303 7.16659 14.1667ZM16.4999 14.1667C16.4999 14.9031 15.903 15.5 15.1666 15.5C14.4302 15.5 13.8333 14.9031 13.8333 14.1667C13.8333 13.4303 14.4302 12.8333 15.1666 12.8333C15.903 12.8333 16.4999 13.4303 16.4999 14.1667Z" stroke="#48AAD6" stroke-linecap="round"/>
</svg>
