<svg width="24" height="24" viewBox="0 0 24 24" fill="none" xmlns="http://www.w3.org/2000/svg">
<path d="M13.659 5.50836L13.2915 5.16923L13.2915 5.16924L13.659 5.50836ZM14.8699 4.35114L14.6143 3.92141L14.6143 3.92141L14.8699 4.35114ZM17.3523 4.31386L17.595 3.87672L17.595 3.8767L17.3523 4.31386ZM19.6927 6.70474L19.2513 6.93953L19.2513 6.9396L19.6927 6.70474ZM19.6562 9.24056L19.2218 8.99298L19.2218 8.99299L19.6562 9.24056ZM18.5234 10.4776L18.8703 10.8377L18.8703 10.8377L18.5234 10.4776ZM11.0005 17.7234L10.6536 17.3633L10.6536 17.3633L11.0005 17.7234ZM8.45445 19.747L8.27257 19.2812L8.27252 19.2812L8.45445 19.747ZM5.23629 19.9749L5.24936 19.475L5.24932 19.475L5.23629 19.9749ZM5.0123 19.969L4.99922 20.4689L4.99927 20.4689L5.0123 19.969ZM4.11487 19.784L4.49006 19.4535L4.48998 19.4534L4.11487 19.784ZM4.02886 18.853L3.53038 18.8141L3.53038 18.8141L4.02886 18.853ZM4.05047 18.5758L4.54895 18.6146L4.54895 18.6146L4.05047 18.5758ZM4.49897 15.7746L4.95756 15.9738L4.95756 15.9738L4.49897 15.7746ZM6.23154 13.5556L5.86412 13.2165L5.86412 13.2165L6.23154 13.5556ZM13.6 19.5C13.3239 19.5 13.1 19.7239 13.1 20C13.1 20.2761 13.3239 20.5 13.6 20.5V19.5ZM20 20.5C20.2761 20.5 20.5 20.2761 20.5 20C20.5 19.7239 20.2761 19.5 20 19.5V20.5ZM14.0264 5.84748C14.6471 5.17493 14.8872 4.92264 15.1255 4.78088L14.6143 3.92141C14.2192 4.1564 13.8631 4.55 13.2915 5.16923L14.0264 5.84748ZM15.1255 4.78088C15.7369 4.41725 16.4883 4.40605 17.1096 4.75101L17.595 3.8767C16.6623 3.3589 15.5314 3.37596 14.6143 3.92141L15.1255 4.78088ZM17.1096 4.75099C17.3518 4.88546 17.5988 5.13029 18.2387 5.78397L18.9533 5.08444C18.3643 4.4827 17.9969 4.09982 17.595 3.87672L17.1096 4.75099ZM18.2387 5.78397C18.8779 6.43698 19.1186 6.69015 19.2513 6.93953L20.1342 6.46996C19.9169 6.0614 19.543 5.68686 18.9533 5.08444L18.2387 5.78397ZM19.2513 6.9396C19.5931 7.58207 19.5818 8.36131 19.2218 8.99298L20.0906 9.48814C20.6206 8.55835 20.6369 7.41492 20.1341 6.46989L19.2513 6.9396ZM19.2218 8.99299C19.0821 9.23818 18.8343 9.48394 18.1766 10.1175L18.8703 10.8377C19.477 10.2533 19.8616 9.89007 20.0906 9.48813L19.2218 8.99299ZM18.1766 10.1175L10.6536 17.3633L11.3473 18.0836L18.8703 10.8377L18.1766 10.1175ZM10.6536 17.3633C9.42558 18.5462 8.90653 19.0336 8.27257 19.2812L8.63633 20.2127C9.49987 19.8755 10.179 19.2089 11.3473 18.0836L10.6536 17.3633ZM8.27252 19.2812C7.63965 19.5284 6.93688 19.5192 5.24936 19.475L5.22322 20.4747C6.82824 20.5167 7.77174 20.5504 8.63637 20.2127L8.27252 19.2812ZM5.24932 19.475L5.02534 19.4692L4.99927 20.4689L5.22326 20.4747L5.24932 19.475ZM5.02539 19.4692C4.75998 19.4623 4.61349 19.4573 4.51258 19.4404C4.4272 19.4262 4.45664 19.4155 4.49006 19.4535L3.73968 20.1145C3.91877 20.3178 4.14633 20.3931 4.34796 20.4268C4.53406 20.4578 4.76346 20.4627 4.99922 20.4689L5.02539 19.4692ZM4.48998 19.4534C4.52196 19.4897 4.50677 19.5137 4.50155 19.4201C4.49559 19.3131 4.50636 19.1612 4.52735 18.8918L3.53038 18.8141C3.51159 19.0552 3.49253 19.2861 3.5031 19.4757C3.51441 19.6787 3.56212 19.913 3.73977 20.1146L4.48998 19.4534ZM4.52735 18.8918L4.54895 18.6146L3.55198 18.5369L3.53038 18.8141L4.52735 18.8918ZM4.54895 18.6146C4.66352 17.144 4.71809 16.525 4.95756 15.9738L4.04038 15.5753C3.71867 16.3158 3.6613 17.1336 3.55198 18.5369L4.54895 18.6146ZM4.95756 15.9738C5.19665 15.4235 5.60822 14.9682 6.59897 13.8947L5.86412 13.2165C4.91889 14.2406 4.36246 14.834 4.04038 15.5753L4.95756 15.9738ZM6.59896 13.8947L14.0264 5.84748L13.2915 5.16924L5.86412 13.2165L6.59896 13.8947ZM12.4464 5.95355L18.0464 11.5536L18.7536 10.8464L13.1536 5.24645L12.4464 5.95355ZM13.6 20.5H20V19.5H13.6V20.5Z" fill="#717680"/>
</svg>
