<svg width="24" height="24" viewBox="0 0 24 24" fill="none" xmlns="http://www.w3.org/2000/svg">
<path d="M10 9L16 14.9996M10 15L16 9.00039M22 12C22 8.22876 22 6.34315 20.8284 5.17157C19.6569 4 17.7712 4 14 4H11C9.0372 4 8.0557 4 7.2111 4.42229C6.3666 4.84458 5.7777 5.62972 4.6 7.2C2.8667 9.51111 2 10.6667 2 12C2 13.3333 2.8667 14.4889 4.6 16.8C5.7777 18.3703 6.3666 19.1554 7.2111 19.5777C8.0557 20 9.0372 20 11 20H14C17.7712 20 19.6569 20 20.8284 18.8284C22 17.6569 22 15.7712 22 12Z" stroke="#717680" stroke-linecap="round"/>
</svg>
