<svg width="16" height="16" viewBox="0 0 16 16" fill="none" xmlns="http://www.w3.org/2000/svg">
<path d="M1.37127 13.2494L2.66984 3.13375C2.78851 2.20932 3.02297 2 3.97074 2C4.91852 2 5.15298 2.20932 5.27165 3.13375L6.66658 14L2.03986 14C1.6834 14 1.50516 14 1.40454 13.887C1.30391 13.774 1.32636 13.5991 1.37127 13.2494Z" stroke="white" stroke-linecap="round" stroke-linejoin="round"/>
<path d="M6.76914 13.9998L14 13.9998C14.3143 13.9998 14.4714 13.9998 14.569 13.9022C14.6667 13.8046 14.6667 13.6474 14.6667 13.3332L14.6667 4.6665L11.7601 7.08862C11.2871 7.48282 11.0506 7.67992 10.8586 7.59002C10.6667 7.50012 10.6667 7.19224 10.6667 6.57648V4.6665L7.7013 6.82313C7.35359 7.07602 7.17973 7.20246 6.97875 7.26781C6.77776 7.33317 6.56279 7.33317 6.13284 7.33317H6" stroke="white" stroke-linecap="round" stroke-linejoin="round"/>
<path d="M2.6665 4L5.33317 4" stroke="white" stroke-linecap="round" stroke-linejoin="round"/>
<path d="M8 10L9.33333 10" stroke="white" stroke-linecap="round" stroke-linejoin="round"/>
<path d="M11.3333 10H12.6666" stroke="white" stroke-linecap="round" stroke-linejoin="round"/>
</svg>
