<svg width="20" height="20" viewBox="0 0 20 20" fill="none" xmlns="http://www.w3.org/2000/svg">
<path d="M12.8889 14.3333C12.8889 15.5299 13.859 16.5 15.0556 16.5C16.2522 16.5 17.2223 15.5299 17.2223 14.3333C17.2223 13.1367 16.2522 12.1667 15.0556 12.1667C13.859 12.1667 12.8889 13.1367 12.8889 14.3333ZM12.8889 14.3333H12.2197C11.826 14.3333 11.6291 14.3333 11.5226 14.2228C11.416 14.1121 11.4242 13.8937 11.4406 13.457C11.4432 13.3883 11.4445 13.3193 11.4445 13.25C11.4445 10.2585 9.01935 7.83333 6.02783 7.83333C4.80842 7.83333 3.68313 8.23628 2.77783 8.91631M10.7223 7.83333L12.9653 8.2539C14.6559 8.57087 15.5013 8.72939 16.0006 9.33115C16.5001 9.93283 16.5001 10.7978 16.5001 12.5278M15.7778 10H15.0556M10.7223 10.3611V8.25734C10.7223 7.97617 10.6813 7.69652 10.6004 7.42721L9.63894 3.5M4.22228 7.83333V3.5M3.50005 3.5H10.7223M14.3334 8.19444V7.11111C14.3334 6.31337 14.9801 5.66667 15.7778 5.66667M6.38894 7.83333V3.5M9.27783 13.25C9.27783 15.0449 7.82276 16.5 6.02783 16.5C4.23291 16.5 2.77783 15.0449 2.77783 13.25C2.77783 11.4551 4.23291 10 6.02783 10C7.82276 10 9.27783 11.4551 9.27783 13.25Z" stroke="white" stroke-linecap="round" stroke-linejoin="round"/>
</svg>
