<svg width="20" height="20" viewBox="0 0 20 20" fill="none" xmlns="http://www.w3.org/2000/svg">
<path d="M6.63654 2.5H12.6058M4.77485 9.36063C4.77485 9.36063 7.0247 8.66625 8.89958 10.7492M14.5242 9.70778C14.5242 9.70778 14.0655 10.4421 13.3993 10.7494M8.14963 14.5006L8.15616 14.4988M11.1494 11.5008L11.156 11.499M7.76994 2.65966V5.6914C7.76994 6.18784 7.50616 6.61589 7.07032 6.84946C4.83158 8.04924 2.7288 11.4484 4.9345 14.9322C5.4282 15.7867 7.05742 17.4959 9.62471 17.4959C12.1919 17.4959 13.8211 15.7867 14.3148 14.9322C16.5206 11.4484 14.4178 8.04924 12.179 6.84946C11.7432 6.61589 11.4789 6.18784 11.4789 5.6914V2.69624" stroke="#9747FF" stroke-linecap="round" stroke-linejoin="round"/>
</svg>
