<svg width="34" height="34" viewBox="0 0 34 34" fill="none" xmlns="http://www.w3.org/2000/svg">
<rect x="0.5" y="0.5" width="33" height="33" rx="5.5" fill="#FFFAEB"/>
<rect x="0.5" y="0.5" width="33" height="33" rx="5.5" stroke="#FEDF89"/>
<path d="M12.993 15.3098L13.4283 15.5558L13.4283 15.5558L12.993 15.3098ZM16.159 11.1361L16.3165 11.6106L16.3165 11.6106L16.159 11.1361ZM17.841 11.1361L17.6835 11.6106L17.6835 11.6106L17.841 11.1361ZM21.007 15.3098L20.5717 15.5558L20.5717 15.5558L21.007 15.3098ZM22.9621 20.1976L23.4516 20.2994L23.4516 20.2994L22.9621 20.1976ZM22.121 21.6858L22.4595 22.0538L22.4595 22.0538L22.121 21.6858ZM11.879 21.6858L11.5405 22.0538L11.5405 22.0538L11.879 21.6858ZM11.0379 20.1976L11.5275 20.0957L11.5275 20.0957L11.0379 20.1976ZM16.6453 19.7C16.6453 19.9761 16.8692 20.2 17.1453 20.2C17.4215 20.2 17.6453 19.9761 17.6453 19.7H16.6453ZM16.5453 16.2C16.2692 16.2 16.0453 16.4239 16.0453 16.7C16.0453 16.9762 16.2692 17.2 16.5453 17.2V16.2ZM16.9952 14.4C16.7191 14.4 16.4952 14.6239 16.4952 14.9C16.4952 15.1761 16.7191 15.4 16.9952 15.4V14.4ZM17.0006 15.4C17.2767 15.4 17.5006 15.1761 17.5006 14.9C17.5006 14.6239 17.2767 14.4 17.0006 14.4V15.4ZM13.4283 15.5558C14.1581 14.2645 14.6863 13.3312 15.1536 12.6759C15.6226 12.0181 15.9744 11.7242 16.3165 11.6106L16.0015 10.6615C15.35 10.8778 14.8428 11.3894 14.3394 12.0953C13.8342 12.8038 13.2762 13.7925 12.5577 15.0637L13.4283 15.5558ZM16.3165 11.6106C16.7608 11.4631 17.2392 11.4631 17.6835 11.6106L17.9985 10.6615C17.3497 10.4462 16.6503 10.4462 16.0015 10.6615L16.3165 11.6106ZM17.6835 11.6106C18.0256 11.7242 18.3773 12.0181 18.8464 12.6759C19.3137 13.3312 19.8419 14.2645 20.5717 15.5558L21.4423 15.0637C20.7238 13.7925 20.1658 12.8038 19.6606 12.0953C19.1572 11.3894 18.65 10.8778 17.9985 10.6615L17.6835 11.6106ZM20.5717 15.5558C21.3014 16.8469 21.8285 17.781 22.1504 18.5223C22.473 19.2651 22.5491 19.728 22.4726 20.0957L23.4516 20.2994C23.5923 19.6232 23.4149 18.9235 23.0677 18.1239C22.7198 17.323 22.1608 16.3351 21.4423 15.0637L20.5717 15.5558ZM22.4726 20.0957C22.3741 20.569 22.1318 20.9965 21.7825 21.3178L22.4595 22.0538C22.9644 21.5893 23.311 20.975 23.4516 20.2994L22.4726 20.0957ZM21.7825 21.3178C21.514 21.5648 21.0902 21.7279 20.3015 21.8137C19.5138 21.8993 18.46 21.9 17 21.9V22.9C18.4364 22.9 19.555 22.9007 20.4095 22.8078C21.2631 22.715 21.9516 22.521 22.4595 22.0538L21.7825 21.3178ZM17 21.9C15.54 21.9 14.4862 21.8993 13.6985 21.8137C12.9097 21.7279 12.486 21.5648 12.2175 21.3178L11.5405 22.0538C12.0484 22.521 12.7369 22.715 13.5904 22.8078C14.445 22.9007 15.5636 22.9 17 22.9V21.9ZM12.2175 21.3179C11.8682 20.9965 11.6259 20.569 11.5275 20.0957L10.5484 20.2994C10.689 20.975 11.0355 21.5893 11.5405 22.0538L12.2175 21.3179ZM11.5275 20.0957C11.4509 19.728 11.527 19.2651 11.8496 18.5223C12.1715 17.781 12.6986 16.8469 13.4283 15.5558L12.5577 15.0637C11.8392 16.3351 11.2802 17.323 10.9323 18.1239C10.5851 18.9235 10.4077 19.6232 10.5484 20.2994L11.5275 20.0957ZM17.6453 19.7V17.3H16.6453V19.7H17.6453ZM17.6453 17.3C17.6453 17.1727 17.6464 17.027 17.6299 16.9042C17.6114 16.767 17.5633 16.5866 17.411 16.4343L16.7039 17.1414C16.6756 17.1131 16.6566 17.0816 16.6459 17.0555C16.6367 17.0333 16.6368 17.023 16.6388 17.0375C16.6408 17.0522 16.6429 17.0786 16.6441 17.1256C16.6453 17.1724 16.6453 17.2274 16.6453 17.3H17.6453ZM17.411 16.4343C17.2586 16.282 17.0782 16.2339 16.9411 16.2154C16.8184 16.1989 16.6726 16.2 16.5453 16.2V17.2C16.6179 17.2 16.6729 17.2 16.7197 17.2012C16.7667 17.2024 16.7931 17.2045 16.8079 17.2065C16.8223 17.2085 16.8121 17.2086 16.7899 17.1995C16.7637 17.1887 16.7322 17.1698 16.7039 17.1414L17.411 16.4343ZM16.9952 15.4H17.0006V14.4H16.9952V15.4Z" fill="#FDB022"/>
</svg>
