<svg width="22" height="22" viewBox="0 0 22 22" fill="none" xmlns="http://www.w3.org/2000/svg">
<path d="M14.3072 16.3945C14.5251 16.2249 14.5642 15.9108 14.3946 15.6929C14.2249 15.475 13.9108 15.4358 13.6929 15.6055L14.3072 16.3945ZM8.30714 15.6055C8.08924 15.4358 7.77508 15.475 7.60545 15.6929C7.43583 15.9108 7.47496 16.2249 7.69286 16.3945L8.30714 15.6055ZM1.35139 12.2135L0.857191 12.2894L0.857192 12.2894L1.35139 12.2135ZM1.25617 7.74938L1.71608 7.94554L1.71608 7.94554L1.25617 7.74938ZM4.58114 4.64106L4.28818 4.23588L4.28818 4.23588L4.58114 4.64106ZM6.02099 3.6L6.31395 4.00518L6.31395 4.00518L6.02099 3.6ZM15.979 3.6L16.272 3.19482L16.272 3.19482L15.979 3.6ZM17.4188 4.64106L17.1259 5.04624L17.1259 5.04625L17.4188 4.64106ZM20.7438 7.74938L20.2839 7.94554L20.2839 7.94554L20.7438 7.74938ZM20.6486 12.2135L20.1544 12.1376V12.1376L20.6486 12.2135ZM20.3476 14.1724L20.8418 14.2484L20.8418 14.2483L20.3476 14.1724ZM1.65243 14.1724L2.14663 14.0965L2.14663 14.0965L1.65243 14.1724ZM13.6929 15.6055C12.9828 16.1583 12.041 16.5 11 16.5V17.5C12.2594 17.5 13.4183 17.0865 14.3072 16.3945L13.6929 15.6055ZM11 16.5C9.95894 16.5 9.01728 16.1583 8.30714 15.6055L7.69286 16.3945C8.58178 17.0865 9.7405 17.5 11 17.5V16.5ZM1.84559 12.1376C1.66751 10.9787 1.54036 10.1471 1.50795 9.47762C1.47611 8.82006 1.53886 8.36105 1.71608 7.94554L0.796258 7.55322C0.539173 8.15596 0.473018 8.78036 0.509116 9.52597C0.544635 10.2596 0.682253 11.151 0.857191 12.2894L1.84559 12.1376ZM1.71608 7.94554C1.89371 7.52908 2.18561 7.15803 2.69069 6.70989C3.20375 6.25468 3.90248 5.74876 4.8741 5.04624L4.28818 4.23588C3.33269 4.92673 2.58608 5.46584 2.02701 5.96188C1.45996 6.465 1.05293 6.95142 0.796255 7.55322L1.71608 7.94554ZM4.8741 5.04624L6.31395 4.00518L5.72803 3.19482L4.28818 4.23588L4.8741 5.04624ZM6.31395 4.00518C7.522 3.13172 8.39419 2.50205 9.13552 2.08604C9.86528 1.67652 10.4248 1.5 11 1.5V0.5C10.1921 0.5 9.4608 0.756811 8.64614 1.21396C7.84306 1.66462 6.91728 2.33495 5.72803 3.19482L6.31395 4.00518ZM11 1.5C11.5752 1.5 12.1347 1.67652 12.8645 2.08604C13.6058 2.50205 14.478 3.13173 15.6861 4.00518L16.272 3.19482C15.0827 2.33494 14.1569 1.66462 13.3538 1.21396C12.5392 0.756814 11.8079 0.5 11 0.5V1.5ZM15.6861 4.00518L17.1259 5.04624L17.7118 4.23588L16.272 3.19482L15.6861 4.00518ZM17.1259 5.04625C18.0975 5.74876 18.7963 6.25468 19.3093 6.70989C19.8144 7.15802 20.1063 7.52908 20.2839 7.94554L21.2037 7.55322C20.9471 6.95142 20.5401 6.465 19.973 5.96188C19.4139 5.46584 18.6673 4.92673 17.7118 4.23587L17.1259 5.04625ZM20.2839 7.94554C20.4611 8.36105 20.5239 8.82006 20.492 9.47762C20.4596 10.1471 20.3325 10.9787 20.1544 12.1376L21.1428 12.2894C21.3177 11.151 21.4554 10.2596 21.4909 9.52597C21.527 8.78036 21.4608 8.15596 21.2037 7.55322L20.2839 7.94554ZM20.1544 12.1376L19.8534 14.0965L20.8418 14.2483L21.1428 12.2894L20.1544 12.1376ZM19.8534 14.0964C19.6011 15.7379 19.4183 16.9212 19.1584 17.8183C18.9028 18.7002 18.5884 19.2457 18.1093 19.6442L18.7488 20.413C19.4376 19.8401 19.8322 19.0857 20.1188 18.0966C20.4011 17.1225 20.5936 15.8634 20.8418 14.2484L19.8534 14.0964ZM18.1093 19.6442C17.6282 20.0444 17.0163 20.2668 16.0662 20.3822C15.1036 20.4991 13.8587 20.5 12.1388 20.5V21.5C13.8337 21.5 15.15 21.5009 16.1868 21.3749C17.2361 21.2475 18.062 20.9842 18.7488 20.413L18.1093 19.6442ZM12.1388 20.5H9.86122V21.5H12.1388V20.5ZM9.86122 20.5C8.14125 20.5 6.89636 20.4991 5.93378 20.3822C4.98371 20.2668 4.37188 20.0444 3.89073 19.6442L3.25127 20.413C3.93803 20.9842 4.76387 21.2475 5.81321 21.3749C6.85004 21.5009 8.16631 21.5 9.86122 21.5V20.5ZM3.89073 19.6442C3.41164 19.2457 3.09723 18.7002 2.84166 17.8183C2.58172 16.9212 2.39888 15.7379 2.14663 14.0965L1.15823 14.2483C1.40642 15.8634 1.59891 17.1225 1.88117 18.0966C2.1678 19.0857 2.56245 19.8401 3.25127 20.413L3.89073 19.6442ZM2.14663 14.0965L1.84559 12.1376L0.857192 12.2894L1.15823 14.2483L2.14663 14.0965Z" fill="#141B34"/>
</svg>
