<svg width="20" height="20" viewBox="0 0 20 20" fill="none" xmlns="http://www.w3.org/2000/svg">
<path d="M16 17.5V15.25C16 13.8358 16 13.1287 15.5606 12.6894C15.1213 12.25 14.4142 12.25 13 12.25M13 12.25H11.5L10 13.75L8.5 12.25H7M13 12.25V17.5M7 12.25C5.58579 12.25 4.87868 12.25 4.43934 12.6894C4 13.1287 4 13.8358 4 15.25V17.5M7 12.25V17.5M10 3.625C11.4497 3.625 12.625 4.80025 12.625 6.25V7.75C12.625 9.19975 11.4497 10.375 10 10.375C8.55025 10.375 7.375 9.19975 7.375 7.75V6.25C7.375 4.80025 8.55025 3.625 10 3.625ZM10 3.625V2.5M6.625 6.625H13.375" stroke="#F97066" stroke-linecap="round" stroke-linejoin="round"/>
</svg>
