<svg width="20" height="20" viewBox="0 0 20 20" fill="none" xmlns="http://www.w3.org/2000/svg">
<path d="M16 17.5002V13.7502C16 12.336 16 11.6289 15.5607 11.1895C15.1213 10.7502 14.4142 10.7502 13 10.7502L10 17.5002L7 10.7502C5.58579 10.7502 4.87868 10.7502 4.43934 11.1895C4 11.6289 4 12.336 4 13.7502V17.5002M10 12.25L9.62501 15.25L10 16.3751L10.375 15.25L10 12.25ZM10 12.25L9.25001 10.75H10.75L10 12.25ZM12.625 5.87513V5.12513C12.625 3.67538 11.4498 2.50012 10 2.50012C8.55026 2.50012 7.375 3.67538 7.375 5.12513V5.87513C7.375 7.32488 8.55026 8.50011 10 8.50011C11.4498 8.50011 12.625 7.32488 12.625 5.87513Z" stroke="white" stroke-linecap="round" stroke-linejoin="round"/>
</svg>
