<svg width="14" height="14" viewBox="0 0 14 14" fill="none" xmlns="http://www.w3.org/2000/svg">
<path d="M11.0499 0.036L13.8319 2.936V13.964H3.43945V14H13.8674V2.9725L11.0499 0.036Z" fill="#909090"/>
<path d="M11.0154 0H3.40395V13.964H13.8319V2.936L11.0154 0Z" fill="#F4F4F4"/>
<path d="M0.132446 0.75V4.1635H10.1824V0.75H0.132446Z" fill="#7A7B7C"/>
<path d="M10.2359 4.1055H0.197446V0.6895H10.2359V4.1055Z" fill="#DD2025"/>
<path d="M3.52595 1.267H2.87245V3.667H3.38645V2.8575L3.49995 2.864C3.61027 2.86248 3.71958 2.84271 3.82345 2.8055C3.91476 2.7745 3.99868 2.72496 4.06995 2.66C4.14303 2.59872 4.20045 2.5209 4.23745 2.433C4.28807 2.28736 4.30599 2.13235 4.28995 1.979C4.2871 1.86943 4.26788 1.76089 4.23295 1.657C4.20146 1.5819 4.15465 1.51421 4.0955 1.45825C4.03635 1.40228 3.96617 1.35928 3.88945 1.332C3.8233 1.3075 3.75476 1.29007 3.68495 1.28C3.63221 1.27141 3.57937 1.26707 3.52595 1.267ZM3.43095 2.414H3.38645V1.674H3.48295C3.52554 1.67093 3.56827 1.67747 3.608 1.69313C3.64772 1.7088 3.68342 1.73319 3.71245 1.7645C3.77261 1.84501 3.80474 1.943 3.80395 2.0435C3.80395 2.1665 3.80395 2.278 3.69295 2.3565C3.613 2.40054 3.52196 2.42084 3.43095 2.414ZM5.26645 1.2605C5.21095 1.2605 5.15695 1.2645 5.11895 1.266L4.99995 1.269H4.60995V3.669H5.06895C5.24434 3.67351 5.41893 3.64379 5.58295 3.5815C5.715 3.52935 5.8319 3.44495 5.92295 3.336C6.01217 3.22658 6.07588 3.09864 6.10945 2.9615C6.14888 2.80646 6.16804 2.64697 6.16645 2.487C6.17623 2.29808 6.16161 2.10868 6.12295 1.9235C6.08593 1.78734 6.01742 1.6618 5.92295 1.557C5.84884 1.47225 5.75769 1.4041 5.65545 1.357C5.56786 1.3164 5.47569 1.28652 5.38095 1.268C5.34327 1.26182 5.30512 1.25898 5.26695 1.2595M5.17595 3.228H5.12595V1.696H5.13245C5.23553 1.68408 5.33984 1.70268 5.43245 1.7495C5.50028 1.80366 5.55555 1.8719 5.59445 1.9495C5.63642 2.03117 5.66062 2.1208 5.66545 2.2125C5.66995 2.3225 5.66545 2.4125 5.66545 2.487C5.6673 2.57281 5.66178 2.65863 5.64895 2.7435C5.63322 2.83053 5.60474 2.91477 5.56445 2.9935C5.51892 3.06692 5.45674 3.12859 5.38295 3.1735C5.3213 3.2135 5.24822 3.23212 5.17495 3.2265M7.71495 1.269H6.49995V3.669H7.01395V2.717H7.66395V2.271H7.01395V1.715H7.71395V1.269" fill="#464648"/>
<path d="M9.89045 9.1275C9.89045 9.1275 11.4844 8.8385 11.4844 9.383C11.4844 9.9275 10.4969 9.706 9.89045 9.1275ZM8.71195 9.169C8.45865 9.22481 8.21183 9.30675 7.97545 9.4135L8.17545 8.9635C8.37545 8.5135 8.58295 7.9 8.58295 7.9C8.82101 8.30206 9.09872 8.67928 9.41195 9.026C9.17615 9.06113 8.94246 9.1092 8.71195 9.17V9.169ZM8.08095 5.919C8.08095 5.4445 8.23445 5.315 8.35395 5.315C8.47345 5.315 8.60795 5.3725 8.61245 5.7845C8.57346 6.19877 8.48671 6.60715 8.35395 7.0015C8.17146 6.67063 8.07727 6.29834 8.08045 5.9205L8.08095 5.919ZM5.75645 11.177C5.26745 10.8845 6.78195 9.984 7.05645 9.955C7.05495 9.9555 6.26845 11.483 5.75645 11.177ZM11.9499 9.4475C11.9449 9.3975 11.8999 8.844 10.9149 8.8675C10.5044 8.8603 10.094 8.88925 9.68845 8.954C9.29539 8.55837 8.95705 8.1119 8.68245 7.6265C8.85535 7.12615 8.96012 6.6048 8.99395 6.0765C8.97945 5.4765 8.83595 5.1325 8.37595 5.1375C7.91595 5.1425 7.84895 5.545 7.90945 6.144C7.96866 6.54654 8.08045 6.93956 8.24195 7.313C8.24195 7.313 8.02945 7.9745 7.74845 8.6325C7.46745 9.2905 7.27545 9.6355 7.27545 9.6355C6.78674 9.79439 6.32671 10.0307 5.91295 10.3355C5.50095 10.719 5.33345 11.0135 5.55045 11.308C5.73745 11.562 6.39195 11.6195 6.97695 10.853C7.28724 10.4567 7.57118 10.0405 7.82695 9.607C7.82695 9.607 8.71895 9.3625 8.99645 9.2955C9.27395 9.2285 9.60945 9.1755 9.60945 9.1755C9.60945 9.1755 10.4239 9.995 11.2094 9.966C11.9949 9.937 11.9569 9.4965 11.9519 9.4485" fill="#DD2025"/>
<path d="M10.9769 0.0385V2.975H13.7934L10.9769 0.0385Z" fill="#909090"/>
<path d="M11.0154 0V2.9365L13.8319 2.936L11.0154 0Z" fill="#F4F4F4"/>
<path d="M3.48745 1.2285H2.83395V3.6285H3.34995V2.8195L3.46395 2.826C3.57427 2.82448 3.68358 2.80471 3.78745 2.7675C3.87876 2.7365 3.96268 2.68696 4.03395 2.622C4.10648 2.56055 4.16338 2.48275 4.19995 2.395C4.25057 2.24936 4.26849 2.09435 4.25245 1.941C4.2496 1.83143 4.23038 1.72289 4.19545 1.619C4.16396 1.5439 4.11715 1.47621 4.058 1.42025C3.99885 1.36428 3.92867 1.32128 3.85195 1.294C3.7855 1.26926 3.71661 1.25167 3.64645 1.2415C3.59371 1.23291 3.54087 1.22857 3.48745 1.2285ZM3.39245 2.3755H3.34795V1.6355H3.44495C3.48754 1.63243 3.53027 1.63897 3.57 1.65463C3.60972 1.6703 3.64542 1.69469 3.67445 1.726C3.73461 1.80651 3.76674 1.9045 3.76595 2.005C3.76595 2.128 3.76595 2.2395 3.65495 2.318C3.575 2.36204 3.48346 2.38234 3.39245 2.3755ZM5.22795 1.222C5.17245 1.222 5.11845 1.226 5.08045 1.2275L4.96295 1.2305H4.57295V3.6305H5.03195C5.20734 3.63501 5.38193 3.60529 5.54595 3.543C5.678 3.49085 5.7949 3.40645 5.88595 3.2975C5.97517 3.18808 6.03888 3.06014 6.07245 2.923C6.11188 2.76796 6.13104 2.60847 6.12945 2.4485C6.13923 2.25958 6.12461 2.07018 6.08595 1.885C6.04893 1.74884 5.98042 1.6233 5.88595 1.5185C5.81184 1.43376 5.72069 1.3656 5.61845 1.3185C5.53086 1.2779 5.43869 1.24802 5.34395 1.2295C5.30627 1.22332 5.26812 1.22048 5.22995 1.221M5.13895 3.1895H5.08895V1.6575H5.09545C5.19853 1.64558 5.30284 1.66418 5.39545 1.711C5.46328 1.76516 5.51855 1.8334 5.55745 1.911C5.59942 1.99267 5.62362 2.0823 5.62845 2.174C5.63295 2.284 5.62845 2.374 5.62845 2.4485C5.6303 2.53431 5.62477 2.62013 5.61195 2.705C5.59622 2.79203 5.56774 2.87627 5.52745 2.955C5.48192 3.02842 5.41974 3.09009 5.34595 3.135C5.2843 3.175 5.21122 3.19362 5.13795 3.188M7.67645 1.2305H6.46145V3.6305H6.97545V2.6785H7.62545V2.2325H6.97545V1.6765H7.67545V1.2305" fill="white"/>
</svg>
