<svg width="20" height="20" viewBox="0 0 20 20" fill="none" xmlns="http://www.w3.org/2000/svg">
<path d="M12.5 9.5C12.5 9.5 10 11.5 10 15M10 15C10 10.0007 8 7.5 8 7.5M10 15C13.5841 15 16.8012 16.5471 19 19M10 15C6.41592 15 3.19883 16.5471 1 19M8.063 7.06301C9.3123 5.8137 9.3123 3.78815 8.063 2.53884C6.17794 0.653757 2.03078 1.03078 2.03078 1.03078C2.03078 1.03078 1.65376 5.17794 3.53884 7.06301C4.78815 8.3123 6.8137 8.3123 8.063 7.06301ZM12.8031 9.1969C13.874 10.2677 15.6102 10.2677 16.681 9.1969C18.2968 7.58109 17.9736 4.02638 17.9736 4.02638C17.9736 4.02638 14.4189 3.70322 12.8031 5.319C11.7323 6.38985 11.7323 8.126 12.8031 9.1969Z" stroke="#141B34" stroke-linecap="round" stroke-linejoin="round"/>
</svg>
