<svg width="20" height="20" viewBox="0 0 20 20" fill="none" xmlns="http://www.w3.org/2000/svg">
<path d="M7.81252 3.97416C7.14305 4.11248 6.48849 4.31329 5.85208 4.57215C5.10695 4.87523 4.73439 5.02678 4.45054 5.44867C4.16669 5.87055 4.16669 6.34841 4.16669 7.30413V14.187C4.16669 15.4109 4.16669 16.0229 4.56255 16.4894C4.95842 16.9559 5.49949 17.0452 6.58162 17.2237C7.67809 17.4045 8.82277 17.5003 10 17.5003C11.1773 17.5003 12.3219 17.4045 13.4184 17.2237C14.5005 17.0452 15.0416 16.9559 15.4375 16.4894C15.8334 16.0229 15.8334 15.4109 15.8334 14.187V7.30413C15.8334 6.34841 15.8334 5.87055 15.5495 5.44867C15.2657 5.02678 14.8931 4.87523 14.1479 4.57215C13.5115 4.31329 12.857 4.11248 12.1875 3.97416M7.81252 3.97416C8.5261 3.82674 9.25652 3.75033 10 3.75033C10.7435 3.75033 11.4739 3.82674 12.1875 3.97416M7.81252 3.97416V3.33366C7.81252 2.54798 7.81252 2.15515 8.0566 1.91107C8.30068 1.66699 8.69352 1.66699 9.47919 1.66699H10.5209C11.3065 1.66699 11.6994 1.66699 11.9434 1.91107C12.1875 2.15515 12.1875 2.54798 12.1875 3.33366V3.97416" stroke="#141B34" stroke-linecap="round" stroke-linejoin="round"/>
<path d="M8.33331 17.0837V15.8337C8.33331 15.048 8.33331 14.6552 8.5774 14.4111C8.82148 14.167 9.21431 14.167 9.99998 14.167C10.7856 14.167 11.1785 14.167 11.4226 14.4111C11.6666 14.6552 11.6666 15.048 11.6666 15.8337V17.0837" stroke="#141B34" stroke-linecap="round" stroke-linejoin="round"/>
<path d="M15.8334 10.0003C14.047 9.46433 12.0741 9.16699 10 9.16699C7.92596 9.16699 5.95304 9.46433 4.16669 10.0003" stroke="#141B34" stroke-linecap="round" stroke-linejoin="round"/>
</svg>
