<svg width="20" height="20" viewBox="0 0 20 20" fill="none" xmlns="http://www.w3.org/2000/svg">
<path d="M4.375 5.5L3.92227 5.28778C3.89114 5.3542 3.875 5.42665 3.875 5.5H4.375ZM15.625 5.5H16.125C16.125 5.42665 16.1089 5.35419 16.0777 5.28777L15.625 5.5ZM14.8928 13.0103L14.5374 12.6585L14.5374 12.6585L14.8928 13.0103ZM5.10723 13.0103L5.46258 12.6585L5.46256 12.6585L5.10723 13.0103ZM4.91586 4.34616L4.46313 4.13394L4.46313 4.13394L4.91586 4.34616ZM14.0298 2.75193L14.2847 2.32179L14.2847 2.32177L14.0298 2.75193ZM15.0841 4.34616L14.6314 4.55834L14.6314 4.55838L15.0841 4.34616ZM8.875 7.25C8.59886 7.25 8.375 7.47386 8.375 7.75C8.375 8.02614 8.59886 8.25 8.875 8.25V7.25ZM11.125 8.25C11.4011 8.25 11.625 8.02614 11.625 7.75C11.625 7.47386 11.4011 7.25 11.125 7.25V8.25ZM9.5 17.5C9.5 17.7761 9.72386 18 10 18C10.2761 18 10.5 17.7761 10.5 17.5H9.5ZM2 17.5C2 17.7761 2.22386 18 2.5 18C2.77614 18 3 17.7761 3 17.5H2ZM5.75 17.5C5.75 17.7761 5.97386 18 6.25 18C6.52614 18 6.75 17.7761 6.75 17.5H5.75ZM17 17.5C17 17.7761 17.2239 18 17.5 18C17.7761 18 18 17.7761 18 17.5H17ZM13.25 17.5C13.25 17.7761 13.4739 18 13.75 18C14.0261 18 14.25 17.7761 14.25 17.5H13.25ZM4.875 8.69897V5.5H3.875V8.69897H4.875ZM4.375 6H15.625V5H4.375V6ZM15.125 5.5V8.69897H16.125V5.5H15.125ZM15.125 8.69897C15.125 9.90352 15.124 10.7571 15.0378 11.4042C14.9536 12.0374 14.7961 12.3973 14.5374 12.6585L15.2481 13.362C15.7217 12.8836 15.9303 12.2784 16.0291 11.5361C16.126 10.8077 16.125 9.87553 16.125 8.69897H15.125ZM14.5374 12.6585C14.2795 12.9191 13.9253 13.0773 13.3009 13.1621C12.6616 13.2489 11.8178 13.25 10.625 13.25V14.25C11.7892 14.25 12.7132 14.2511 13.4355 14.153C14.1726 14.0529 14.7738 13.8412 15.2481 13.362L14.5374 12.6585ZM10.625 13.25H9.37503V14.25H10.625V13.25ZM9.37503 13.25C8.18223 13.25 7.33844 13.2489 6.69912 13.1621C6.07471 13.0773 5.72052 12.9191 5.46258 12.6585L4.75188 13.362C5.22618 13.8412 5.82736 14.0529 6.56453 14.153C7.28679 14.2511 8.21078 14.25 9.37503 14.25V13.25ZM5.46256 12.6585C5.20394 12.3973 5.04643 12.0374 4.96216 11.4042C4.87604 10.7571 4.875 9.90352 4.875 8.69897H3.875C3.875 9.87553 3.87396 10.8077 3.9709 11.5361C4.06968 12.2784 4.27829 12.8836 4.7519 13.362L5.46256 12.6585ZM4.82773 5.71222L5.36859 4.55837L4.46313 4.13394L3.92227 5.28778L4.82773 5.71222ZM5.36859 4.55837C5.58319 4.10057 5.72684 3.79594 5.86603 3.57114C5.99717 3.35931 6.10354 3.2541 6.22509 3.18207L5.71529 2.32178C5.41171 2.50168 5.20066 2.74614 5.01579 3.04473C4.83896 3.33035 4.66801 3.69687 4.46313 4.13394L5.36859 4.55837ZM6.22509 3.18207C6.3505 3.10776 6.51241 3.0569 6.79926 3.02917C7.09546 3.00054 7.47625 3 8.03125 3V2C7.49563 2 7.05845 1.99946 6.70305 2.03381C6.33831 2.06906 6.01501 2.14417 5.71529 2.32178L6.22509 3.18207ZM8.03125 3H11.9688V2H8.03125V3ZM11.9688 3C12.5238 3 12.9045 3.00054 13.2007 3.02917C13.4876 3.0569 13.6495 3.10775 13.7749 3.18208L14.2847 2.32177C13.985 2.14417 13.6617 2.06907 13.2969 2.03381C12.9416 1.99946 12.5044 2 11.9688 2V3ZM13.7749 3.18206C13.8965 3.2541 14.0028 3.35932 14.134 3.57114C14.2732 3.79593 14.4168 4.10056 14.6314 4.55834L15.5368 4.13397C15.332 3.69688 15.1611 3.33036 14.9842 3.04473C14.7993 2.74614 14.5883 2.50168 14.2847 2.32179L13.7749 3.18206ZM14.6314 4.55838L15.1723 5.71223L16.0777 5.28777L15.5368 4.13393L14.6314 4.55838ZM8.875 8.25H11.125V7.25H8.875V8.25ZM9.5 15.625V17.5H10.5V15.625H9.5ZM10 15.125H6.25V16.125H10V15.125ZM10 16.125H13.75V15.125H10V16.125ZM6.25 15.125H4.375V16.125H6.25V15.125ZM4.375 15.125C3.06332 15.125 2 16.1883 2 17.5H3C3 16.7406 3.61561 16.125 4.375 16.125V15.125ZM5.75 15.625V17.5H6.75V15.625H5.75ZM13.75 16.125H15.625V15.125H13.75V16.125ZM15.625 16.125C16.3844 16.125 17 16.7406 17 17.5H18C18 16.1883 16.9367 15.125 15.625 15.125V16.125ZM13.25 15.625V17.5H14.25V15.625H13.25Z" fill="white"/>
</svg>
