<svg width="20" height="20" viewBox="0 0 20 20" fill="none" xmlns="http://www.w3.org/2000/svg">
<path d="M10.2222 5.41294C8.16967 3.36037 5.31719 2.88496 3.85107 4.35107M3.85107 4.35107C2.38496 5.81719 2.86037 8.66967 4.91294 10.7222M3.85107 4.35107C4.02806 5.23596 4.96624 7.16479 7.30233 7.8019M7.48583 15.6253C8.99264 17.1322 11.9244 16.6435 14.034 14.534C16.1435 12.4244 16.6322 9.49264 15.1253 7.98583M7.48583 15.6253C5.97899 14.1185 6.4676 11.1868 8.57715 9.07715C10.6868 6.9676 13.6185 6.47899 15.1253 7.98583M7.48583 15.6253C8.57715 15.2615 10.6432 14.9629 11.5786 11.5329C12.2334 9.13197 14.2158 8.16772 15.1253 7.98583" stroke="white" stroke-linecap="round" stroke-linejoin="round"/>
</svg>
