<svg width="16" height="15" viewBox="0 0 16 15" fill="none" xmlns="http://www.w3.org/2000/svg">
<path d="M7.99992 14.1667C4.31802 14.1667 1.33325 11.1819 1.33325 7.50004C1.33325 5.63835 2.09635 3.95489 3.32683 2.74539M7.99992 14.1667C7.35792 13.691 7.46039 13.137 7.78245 12.5832C8.27765 11.7316 8.27765 11.7316 8.27765 10.5963C8.27765 9.46097 8.95232 8.92864 11.3333 9.40477C12.4031 9.61877 13.1827 8.14064 14.5715 8.62871M7.99992 14.1667C11.2971 14.1667 14.0353 11.7731 14.5715 8.62871M3.32683 2.74539C3.89302 2.80514 4.21003 3.10847 4.73656 3.66481C5.73619 4.72105 6.73579 4.80919 7.40225 4.45711C8.40185 3.92899 7.56185 3.07357 8.73505 2.60869C9.45432 2.32371 9.59139 1.57737 9.25099 0.950567M3.32683 2.74539C4.52988 1.56285 6.17971 0.833374 7.99992 0.833374C8.42752 0.833374 8.84572 0.873634 9.25099 0.950567M14.5715 8.62871C14.634 8.26184 14.6666 7.88477 14.6666 7.50004C14.6666 4.24575 12.3349 1.53607 9.25099 0.950567" stroke="#717680" stroke-linejoin="round"/>
</svg>
