<svg width="20" height="22" viewBox="0 0 20 22" fill="none" xmlns="http://www.w3.org/2000/svg">
<path d="M6 1.50002V8.82623C6 10.0733 6 10.6969 6.38642 10.9201C7.13473 11.3523 8.5384 9.91032 9.205 9.47612C9.5916 9.22432 9.7849 9.09842 10 9.09842C10.2151 9.09842 10.4084 9.22432 10.795 9.47612C11.4616 9.91032 12.8653 11.3523 13.6136 10.9201C14 10.6969 14 10.0733 14 8.82623V1.50002M10 21.0002C5.75736 21.0002 3.63604 21.0002 2.31802 19.5358C1 18.0713 1 15.7143 1 11.0002C1 6.28619 1 3.92917 2.31802 2.4647C3.63604 1.00024 5.75736 1.00024 10 1.00024C14.2426 1.00024 16.364 1.00024 17.682 2.4647C19 3.92917 19 6.28619 19 11.0002C19 15.7143 19 18.0713 17.682 19.5358C16.364 21.0002 14.2426 21.0002 10 21.0002Z" stroke="#717680" stroke-linecap="round" stroke-linejoin="round"/>
</svg>
