<svg width="20" height="20" viewBox="0 0 20 20" fill="none" xmlns="http://www.w3.org/2000/svg">
<path d="M2.55135 12.0341L2.85571 10.2484C3.21545 8.13787 3.39531 7.0826 4.1076 6.4578C4.81989 5.83301 5.84307 5.83301 7.88943 5.83301H12.1106C14.1569 5.83301 15.1801 5.83301 15.8924 6.4578C16.6046 7.0826 16.7845 8.13787 17.1442 10.2484L17.4486 12.0341C17.9464 14.9547 18.1953 16.4149 17.4289 17.3739C16.6625 18.333 15.2466 18.333 12.4149 18.333H7.58506C4.75336 18.333 3.33751 18.333 2.57109 17.3739C1.80466 16.4149 2.05356 14.9547 2.55135 12.0341Z" stroke="#141B34"/>
<path d="M6.25 7.50033L6.42918 4.99185C6.56299 3.11846 8.12183 1.66699 10 1.66699C11.8782 1.66699 13.437 3.11846 13.5708 4.99185L13.75 7.50033" stroke="#141B34" stroke-linecap="round"/>
</svg>
