<svg width="20" height="20" viewBox="0 0 20 20" fill="none" xmlns="http://www.w3.org/2000/svg">
<path d="M5.33331 12.1667C5.33331 12.4428 5.55717 12.6667 5.83331 12.6667C6.10946 12.6667 6.33331 12.4428 6.33331 12.1667H5.33331ZM6.33331 11.3333C6.33331 11.0572 6.10946 10.8333 5.83331 10.8333C5.55717 10.8333 5.33331 11.0572 5.33331 11.3333H6.33331ZM5.33331 9.25C5.33331 9.52614 5.55717 9.75 5.83331 9.75C6.10946 9.75 6.33331 9.52614 6.33331 9.25H5.33331ZM6.33331 8.41667C6.33331 8.14052 6.10946 7.91667 5.83331 7.91667C5.55717 7.91667 5.33331 8.14052 5.33331 8.41667H6.33331ZM5.33331 6.33333C5.33331 6.60948 5.55717 6.83333 5.83331 6.83333C6.10946 6.83333 6.33331 6.60948 6.33331 6.33333H5.33331ZM6.33331 5.5C6.33331 5.22386 6.10946 5 5.83331 5C5.55717 5 5.33331 5.22386 5.33331 5.5H6.33331ZM13.6666 12.1667C13.6666 12.4428 13.8905 12.6667 14.1666 12.6667C14.4428 12.6667 14.6666 12.4428 14.6666 12.1667H13.6666ZM14.6666 11.3333C14.6666 11.0572 14.4428 10.8333 14.1666 10.8333C13.8905 10.8333 13.6666 11.0572 13.6666 11.3333H14.6666ZM13.6666 9.25C13.6666 9.52614 13.8905 9.75 14.1666 9.75C14.4428 9.75 14.6666 9.52614 14.6666 9.25H13.6666ZM14.6666 8.41667C14.6666 8.14052 14.4428 7.91667 14.1666 7.91667C13.8905 7.91667 13.6666 8.14052 13.6666 8.41667H14.6666ZM13.6666 6.33333C13.6666 6.60948 13.8905 6.83333 14.1666 6.83333C14.4428 6.83333 14.6666 6.60948 14.6666 6.33333H13.6666ZM14.6666 5.5C14.6666 5.22386 14.4428 5 14.1666 5C13.8905 5 13.6666 5.22386 13.6666 5.5H14.6666ZM9.49998 12.1667C9.49998 12.4428 9.72384 12.6667 9.99998 12.6667C10.2761 12.6667 10.5 12.4428 10.5 12.1667H9.49998ZM10.5 11.3333C10.5 11.0572 10.2761 10.8333 9.99998 10.8333C9.72384 10.8333 9.49998 11.0572 9.49998 11.3333H10.5ZM9.49998 9.25C9.49998 9.52614 9.72384 9.75 9.99998 9.75C10.2761 9.75 10.5 9.52614 10.5 9.25H9.49998ZM10.5 8.41667C10.5 8.14052 10.2761 7.91667 9.99998 7.91667C9.72384 7.91667 9.49998 8.14052 9.49998 8.41667H10.5ZM2.16669 5.83268C2.16669 5.55654 1.94283 5.33268 1.66669 5.33268C1.39054 5.33268 1.16669 5.55654 1.16669 5.83268H2.16669ZM18.8334 5.83268C18.8334 5.55654 18.6095 5.33268 18.3334 5.33268C18.0572 5.33268 17.8334 5.55654 17.8334 5.83268H18.8334ZM1.98954 7.84429C1.77869 7.66598 1.46321 7.69236 1.2849 7.90322C1.10659 8.11408 1.13297 8.42956 1.34383 8.60787L1.98954 7.84429ZM6.68477 8.19383L6.46655 7.74396L6.46654 7.74397L6.68477 8.19383ZM10.6584 8.19383L10.335 8.57518L10.3383 8.57796L10.6584 8.19383ZM18.4217 8.15646C18.6935 8.10765 18.8743 7.84775 18.8255 7.57596C18.7767 7.30416 18.5168 7.12339 18.245 7.1722L18.4217 8.15646ZM5.83331 12.1667H6.33331V11.3333H5.83331H5.33331V12.1667H5.83331ZM5.83331 9.25H6.33331V8.41667H5.83331H5.33331V9.25H5.83331ZM5.83331 6.33333H6.33331V5.5H5.83331H5.33331V6.33333H5.83331ZM14.1666 12.1667H14.6666V11.3333H14.1666H13.6666V12.1667H14.1666ZM14.1666 9.25H14.6666V8.41667H14.1666H13.6666V9.25H14.1666ZM14.1666 6.33333H14.6666V5.5H14.1666H13.6666V6.33333H14.1666ZM9.99998 12.1667H10.5V11.3333H9.99998H9.49998V12.1667H9.99998ZM9.99998 9.25H10.5V8.41667H9.99998H9.49998V9.25H9.99998ZM1.66669 5.83268H1.16669V9.16602H1.66669H2.16669V5.83268H1.66669ZM1.66669 9.16602H1.16669C1.16669 10.3304 1.16563 11.254 1.26267 11.9758C1.36166 12.712 1.57087 13.3128 2.04536 13.7873L2.39892 13.4338L2.75248 13.0802C2.49474 12.8225 2.33783 12.4679 2.25376 11.8425C2.16775 11.2028 2.16669 10.3587 2.16669 9.16602H1.66669ZM2.39892 13.4338L2.04536 13.7873C2.51986 14.2618 3.12065 14.471 3.85688 14.57C4.57873 14.6671 5.50231 14.666 6.66669 14.666V14.166V13.666C5.47404 13.666 4.62985 13.665 3.99013 13.5789C3.36479 13.4949 3.01021 13.338 2.75248 13.0802L2.39892 13.4338ZM6.66669 14.166V14.666H13.3334V14.166V13.666H6.66669V14.166ZM13.3334 14.166V14.666C14.4977 14.666 15.4213 14.6671 16.1431 14.57C16.8794 14.471 17.4801 14.2618 17.9547 13.7873L17.6011 13.4338L17.2475 13.0802C16.9898 13.338 16.6352 13.4949 16.0099 13.5789C15.3702 13.665 14.526 13.666 13.3334 13.666V14.166ZM17.6011 13.4338L17.9547 13.7873C18.4292 13.3128 18.6384 12.712 18.7374 11.9758C18.8344 11.254 18.8334 10.3304 18.8334 9.16602H18.3334H17.8334C17.8334 10.3587 17.8323 11.2028 17.7463 11.8425C17.6622 12.4679 17.5053 12.8225 17.2475 13.0802L17.6011 13.4338ZM18.3334 9.16602H18.8334V5.83268H18.3334H17.8334V9.16602H18.3334ZM1.66669 8.22608L1.34383 8.60787C2.39221 9.49442 3.40317 9.7178 4.37437 9.58362C5.29729 9.45612 6.16188 9.00321 6.903 8.64369L6.68477 8.19383L6.46654 7.74397C5.66816 8.13127 4.96708 8.49224 4.23752 8.59303C3.55624 8.68715 2.8279 8.55324 1.98954 7.84429L1.66669 8.22608ZM6.68477 8.19383L6.90299 8.64369C7.56697 8.32161 8.13872 8.06863 8.69485 8.01149C9.21335 7.95821 9.74386 8.0739 10.335 8.57517L10.6584 8.19383L10.9817 7.81248C10.1862 7.13784 9.38614 6.93519 8.59264 7.01673C7.83676 7.0944 7.11505 7.42938 6.46655 7.74396L6.68477 8.19383ZM10.6584 8.19383L10.3383 8.57796C11.081 9.19679 11.8236 9.51819 12.5694 9.62504C13.3087 9.73096 14.0167 9.6211 14.6843 9.43145C15.344 9.24408 16.0011 8.96668 16.6127 8.72525C17.2391 8.47801 17.8309 8.26254 18.4217 8.15646L18.3334 7.66433L18.245 7.1722C17.5479 7.29736 16.8757 7.54636 16.2456 7.79509C15.6008 8.04962 15.009 8.29967 14.4111 8.46951C13.8212 8.63708 13.263 8.71421 12.7112 8.63515C12.166 8.55703 11.5927 8.32149 10.9784 7.80969L10.6584 8.19383Z" fill="#141B34"/>
</svg>
