<svg width="19" height="21" viewBox="0 0 19 21" fill="none" xmlns="http://www.w3.org/2000/svg">
<path d="M2.10049 12.2494L2.49092 12.5618L2.49093 12.5617L2.10049 12.2494ZM3.5 10.5L3.92875 10.2428C3.84452 10.1024 3.6969 10.0121 3.53355 10.0011C3.37021 9.99014 3.21183 10.0598 3.10956 10.1877L3.5 10.5ZM5 13L4.57125 13.2572C4.66786 13.4183 4.84652 13.5116 5.03386 13.4989C5.22119 13.4861 5.38561 13.3695 5.45957 13.197L5 13ZM6.5 9.5L6.94721 9.27639C6.86015 9.10226 6.67992 8.9945 6.48531 9.00022C6.29071 9.00593 6.11712 9.12409 6.04043 9.30304L6.5 9.5ZM9 14.5L8.55279 14.7236C8.63748 14.893 8.81061 15 9 15C9.18939 15 9.36252 14.893 9.44721 14.7236L9 14.5ZM12.5 7.5L12.9341 7.25193C12.8426 7.09183 12.6705 6.99508 12.4861 7.00019C12.3018 7.00531 12.1353 7.11146 12.0528 7.27639L12.5 7.5ZM14.5 11L14.0659 11.2481C14.1432 11.3834 14.2792 11.4749 14.4336 11.4956C14.5881 11.5163 14.7434 11.4637 14.8536 11.3536L14.5 11ZM16 9.5L16.416 9.22265C16.3329 9.09801 16.1983 9.01719 16.0493 9.00243C15.9002 8.98767 15.7524 9.04052 15.6464 9.14645L16 9.5ZM17.4453 11.668L17.0293 11.9453L17.0293 11.9454L17.4453 11.668ZM18.0074 12.3494L17.7435 12.7741L17.7439 12.7743L18.0074 12.3494ZM18.1212 12.4103L18.3281 11.9551L18.3279 11.955L18.1212 12.4103ZM13 1C13 0.723858 12.7761 0.5 12.5 0.5C12.2239 0.5 12 0.723858 12 1H13ZM12 4C12 4.27614 12.2239 4.5 12.5 4.5C12.7761 4.5 13 4.27614 13 4H12ZM12 20C12 20.2761 12.2239 20.5 12.5 20.5C12.7761 20.5 13 20.2761 13 20H12ZM13 13C13 12.7239 12.7761 12.5 12.5 12.5C12.2239 12.5 12 12.7239 12 13H13ZM0 13.5H0.53875V12.5H0V13.5ZM0.53875 13.5C0.96302 13.5 1.33707 13.5116 1.66916 13.3519L1.23596 12.4507C1.15735 12.4884 1.0591 12.5 0.53875 12.5V13.5ZM1.66916 13.3519C2.00124 13.1923 2.22587 12.8931 2.49092 12.5618L1.71006 11.937C1.38501 12.3433 1.31458 12.4129 1.23596 12.4507L1.66916 13.3519ZM2.49093 12.5617L3.89044 10.8123L3.10956 10.1877L1.71005 11.9371L2.49093 12.5617ZM3.07125 10.7572L4.57125 13.2572L5.42875 12.7428L3.92875 10.2428L3.07125 10.7572ZM5.45957 13.197L6.95957 9.69696L6.04043 9.30304L4.54043 12.803L5.45957 13.197ZM6.05279 9.72361L8.55279 14.7236L9.44721 14.2764L6.94721 9.27639L6.05279 9.72361ZM9.44721 14.7236L12.9472 7.72361L12.0528 7.27639L8.55279 14.2764L9.44721 14.7236ZM12.0659 7.74807L14.0659 11.2481L14.9341 10.7519L12.9341 7.25193L12.0659 7.74807ZM14.8536 11.3536L16.3536 9.85355L15.6464 9.14645L14.1464 10.6464L14.8536 11.3536ZM15.584 9.77735L17.0293 11.9453L17.8613 11.3907L16.416 9.22265L15.584 9.77735ZM17.0293 11.9454C17.2556 12.2849 17.4457 12.589 17.7435 12.7741L18.2713 11.9247C18.2009 11.881 18.139 11.8071 17.8613 11.3906L17.0293 11.9454ZM17.7439 12.7743C17.7982 12.808 17.8551 12.8386 17.9145 12.8656L18.3279 11.955C18.3089 11.9464 18.2899 11.9362 18.2709 11.9245L17.7439 12.7743ZM17.9143 12.8655C18.2334 13.0106 18.5919 13 19 13V12C18.4995 12 18.4036 11.9894 18.3281 11.9551L17.9143 12.8655ZM12 1V4H13V1H12ZM13 20V13H12V20H13Z" fill="#141B34"/>
</svg>
