<svg width="20" height="20" viewBox="0 0 20 20" fill="none" xmlns="http://www.w3.org/2000/svg">
<path d="M8.06573 5.54002C7.47378 5.66232 6.895 5.83989 6.33228 6.06877C5.67343 6.33676 5.34401 6.47076 5.09302 6.8438C4.84204 7.21683 4.84204 7.63936 4.84204 8.48442V14.5703C4.84204 15.6525 4.84204 16.1937 5.19207 16.6061C5.5421 17.0186 6.02052 17.0975 6.97735 17.2554C7.94686 17.4153 8.959 17.5 9.99994 17.5C11.0409 17.5 12.053 17.4153 13.0225 17.2554C13.9793 17.0975 14.4578 17.0186 14.8078 16.6061C15.1578 16.1937 15.1578 15.6525 15.1578 14.5703V8.48442C15.1578 7.63936 15.1578 7.21683 14.9069 6.8438C14.6559 6.47076 14.3265 6.33676 13.6676 6.06877C13.1048 5.83989 12.5261 5.66232 11.9341 5.54002M8.06573 5.54002C8.69668 5.40967 9.34253 5.34211 9.99994 5.34211C10.6573 5.34211 11.3032 5.40967 11.9341 5.54002M8.06573 5.54002V4.97368C8.06573 4.27898 8.06573 3.93163 8.28154 3.71581C8.49736 3.5 8.84471 3.5 9.53941 3.5H10.4605C11.1552 3.5 11.5025 3.5 11.7183 3.71581C11.9341 3.93163 11.9341 4.27898 11.9341 4.97368V5.54002M8.52625 17.1316V16.0263C8.52625 15.3316 8.52625 14.9843 8.74207 14.7685C8.95789 14.5526 9.30524 14.5526 9.99994 14.5526C10.6946 14.5526 11.042 14.5526 11.2578 14.7685C11.4736 14.9843 11.4736 15.3316 11.4736 16.0263V17.1316M15.1578 10.8684C13.5783 10.3945 11.8339 10.1316 9.99994 10.1316C8.16603 10.1316 6.42155 10.3945 4.84204 10.8684" stroke="white" stroke-linecap="round" stroke-linejoin="round"/>
</svg>
