<svg width="20" height="20" viewBox="0 0 20 20" fill="none" xmlns="http://www.w3.org/2000/svg">
<path d="M5.83331 12.167V11.3337M5.83331 9.25033V8.41699M5.83331 6.33366V5.50033M14.1666 12.167V11.3337M14.1666 9.25033V8.41699M14.1666 6.33366V5.50033M9.99998 12.167V11.3337M9.99998 9.25033V8.41699" stroke="#141B34" stroke-linecap="round" stroke-linejoin="round"/>
<path d="M1.66669 5.83301V9.16634C1.66669 11.5233 1.66669 12.7018 2.39892 13.4341C3.13115 14.1663 4.30966 14.1663 6.66669 14.1663H13.3334C15.6904 14.1663 16.8689 14.1663 17.6011 13.4341C18.3334 12.7018 18.3334 11.5233 18.3334 9.16634V5.83301" stroke="#141B34" stroke-linecap="round" stroke-linejoin="round"/>
<path d="M1.66669 8.2264C3.55343 9.8219 5.14527 8.94099 6.68477 8.19415C7.99725 7.55749 9.27169 7.01824 10.6584 8.19415C13.3723 10.4554 15.7577 8.12715 18.3334 7.66465" stroke="#141B34" stroke-linecap="round"/>
</svg>
