<svg width="14" height="14" viewBox="0 0 14 14" fill="none" xmlns="http://www.w3.org/2000/svg">
<path d="M8.7905 6.675L3.256 5.7V12.9045C3.25593 12.9828 3.27133 13.0604 3.30129 13.1327C3.33126 13.205 3.37521 13.2708 3.43062 13.3261C3.48604 13.3814 3.55183 13.4253 3.62423 13.4551C3.69662 13.4849 3.7742 13.5002 3.8525 13.5H13.4025C13.4809 13.5003 13.5586 13.4852 13.6311 13.4554C13.7036 13.4256 13.7695 13.3818 13.825 13.3264C13.8805 13.2711 13.9246 13.2053 13.9546 13.1329C13.9846 13.0605 14.0001 12.9829 14 12.9045V10.25L8.7905 6.675Z" fill="#185C37"/>
<path d="M8.7905 0.500003H3.8525C3.7742 0.499806 3.69662 0.515067 3.62423 0.544911C3.55183 0.574756 3.48604 0.618597 3.43062 0.67392C3.37521 0.729244 3.33126 0.794962 3.30129 0.867306C3.27133 0.939651 3.25593 1.0172 3.256 1.0955V3.75L8.7905 7L11.721 7.975L14 7V3.75L8.7905 0.500003Z" fill="#21A366"/>
<path d="M3.256 3.75H8.7905V7H3.256L3.256 3.75Z" fill="#107C41"/>
<path d="M7.217 3.1H3.256V11.225H7.217C7.37483 11.2242 7.526 11.1613 7.63775 11.0498C7.74949 10.9383 7.81282 10.7873 7.814 10.6295V3.6955C7.81282 3.53767 7.74949 3.38666 7.63775 3.2752C7.526 3.16373 7.37483 3.10079 7.217 3.1Z" fill="black"/>
<path d="M6.8915 3.425H3.256V11.55H6.8915C7.04933 11.5492 7.2005 11.4863 7.31225 11.3748C7.42399 11.2633 7.48732 11.1123 7.4885 10.9545V4.0205C7.48732 3.86267 7.42399 3.71166 7.31225 3.6002C7.2005 3.48873 7.04933 3.42579 6.8915 3.425Z" fill="black"/>
<path d="M6.8915 3.425H3.256V10.9H6.8915C7.04933 10.8992 7.2005 10.8363 7.31225 10.7248C7.42399 10.6133 7.48732 10.4623 7.4885 10.3045V4.0205C7.48732 3.86267 7.42399 3.71166 7.31225 3.6002C7.2005 3.48873 7.04933 3.42579 6.8915 3.425Z" fill="black"/>
<path d="M6.566 3.425H3.256V10.9H6.566C6.72383 10.8992 6.875 10.8363 6.98675 10.7248C7.09849 10.6133 7.16182 10.4623 7.163 10.3045V4.0205C7.16182 3.86267 7.09849 3.71166 6.98675 3.6002C6.875 3.48873 6.72383 3.42579 6.566 3.425Z" fill="black"/>
<path d="M0.597 3.425H6.566C6.72412 3.42487 6.87581 3.48752 6.98776 3.59918C7.0997 3.71085 7.16274 3.86239 7.163 4.0205L7.163 9.9795C7.16273 10.1376 7.0997 10.2892 6.98776 10.4008C6.87581 10.5125 6.72411 10.5751 6.566 10.575H0.597C0.518654 10.5753 0.441026 10.5601 0.368574 10.5302C0.296121 10.5004 0.23027 10.4566 0.174801 10.4013C0.119332 10.3459 0.0753357 10.2802 0.0453386 10.2078C0.0153415 10.1354 -6.60677e-05 10.0578 2.12938e-07 9.9795V4.0205C-6.60677e-05 3.94216 0.0153415 3.86457 0.0453386 3.79219C0.0753357 3.71981 0.119332 3.65407 0.174801 3.59874C0.23027 3.54341 0.296121 3.49958 0.368574 3.46977C0.441026 3.43995 0.518654 3.42474 0.597 3.425Z" fill="url(#paint0_linear_1789_3722)"/>
<path d="M1.85 8.9365L3.1055 6.9945L1.9555 5.0635H2.879L3.5065 6.3C3.5645 6.417 3.6065 6.504 3.6255 6.562H3.634C3.675 6.46834 3.71833 6.37734 3.764 6.289L4.435 5.0655H5.285L4.1055 6.9855L5.315 8.938H4.4105L3.6855 7.5825C3.65193 7.52418 3.62333 7.46313 3.6 7.4H3.588C3.56681 7.46153 3.53863 7.52041 3.504 7.5755L2.7575 8.9365H1.85Z" fill="white"/>
<path d="M13.403 0.500003L8.7905 0.500003V3.75H14L14 1.0955C14.0001 1.01716 13.9847 0.939567 13.9547 0.86719C13.9247 0.794813 13.8807 0.729073 13.8252 0.673743C13.7697 0.618412 13.7039 0.574582 13.6314 0.544767C13.559 0.514952 13.4813 0.49974 13.403 0.500003Z" fill="#33C481"/>
<path d="M8.7905 7H14V10.25H8.7905V7Z" fill="#107C41"/>
<defs>
<linearGradient id="paint0_linear_1789_3722" x1="2.43725" y1="-0.350903" x2="10.6094" y2="14.863" gradientUnits="userSpaceOnUse">
<stop stop-color="#18884F"/>
<stop offset="0.5" stop-color="#117E43"/>
<stop offset="1" stop-color="#0B6631"/>
</linearGradient>
</defs>
</svg>
